<svg width="229" height="201" viewBox="0 0 229 201" fill="none" xmlns="http://www.w3.org/2000/svg">
<path d="M6.66258 13.1745H223.457V44.3543H6.66258V13.1745Z" fill="#C6ABD6"/>
<path d="M6.73574 44.3543C4.02741 44.3543 1.83188 37.3745 1.83188 28.7644C1.83188 20.1544 4.02741 13.1745 6.73574 13.1745C9.44406 13.1745 11.6396 20.1544 11.6396 28.7644C11.6396 37.3745 9.44406 44.3543 6.73574 44.3543Z" fill="#C6ABD6"/>
<path d="M223.384 44.3543C220.676 44.3543 218.48 37.3745 218.48 28.7644C218.48 20.1544 220.676 13.1745 223.384 13.1745C226.092 13.1745 228.288 20.1544 228.288 28.7644C228.288 37.3745 226.092 44.3543 223.384 44.3543Z" fill="#FFA6C5"/>
<path d="M185.544 16.6877L194.912 23.1287L200.734 3.13258C201.19 1.56598 200.015 0 198.383 0H197.706C196.877 0 196.104 0.419709 195.652 1.11523L185.544 16.6877Z" fill="#C6ABD6"/>
<path d="M214.856 65.1408H215.903C218.063 65.1408 219.443 62.8375 218.423 60.9335L208.526 42.4513H194.912L212.645 64.0941C213.188 64.7567 214 65.1408 214.856 65.1408Z" fill="#C6ABD6"/>
<path d="M143.328 21.549C133.893 21.4568 124.458 21.3971 115.022 21.3238C112.662 21.3055 110.302 21.2387 107.947 21.0799C105.702 20.9285 103.399 20.7781 101.196 20.298C97.0935 19.4037 93.2047 17.1652 88.8951 17.5387C84.7293 17.8998 81.0691 20.3099 76.9708 20.9974C72.4661 21.753 67.8814 21.3415 63.3459 21.2096C58.5111 21.0691 53.6673 21.1085 48.8308 21.0379C43.9486 20.9666 39.0668 20.8713 34.1858 20.7436C31.8985 20.6838 29.6009 20.5409 27.3128 20.5802C25.2299 20.6159 23.151 20.8 21.0668 20.7712C19.0436 20.7434 17.1221 20.4551 15.228 19.7303C13.0975 18.9149 11.0519 18.0218 8.75253 17.8079C7.62511 17.7031 6.49574 17.727 5.37143 17.8559C4.53058 17.9523 4.53748 16.6341 5.37143 16.5384C7.55067 16.2886 9.77341 16.4612 11.8816 17.0756C13.9932 17.6909 15.9389 18.8138 18.1158 19.2102C20.1206 19.5754 22.2007 19.4719 24.2255 19.3818C26.3678 19.2866 28.484 19.2639 30.6277 19.3272C40.3431 19.6139 50.0622 19.7637 59.7814 19.8438C64.4268 19.8821 69.1043 20.3281 73.7457 20.0389C75.9273 19.9029 78.0111 19.5156 80.079 18.8068C82.0223 18.1407 83.9148 17.3211 85.8983 16.7752C87.9027 16.2234 89.9304 16.0392 91.9921 16.3408C94.0639 16.6439 96.0419 17.355 98.021 18.0111C100.157 18.7192 102.255 19.2152 104.493 19.4596C106.833 19.7152 109.184 19.8627 111.537 19.9392C116.155 20.0894 120.784 20.0423 125.405 20.0768C130.143 20.1122 134.881 20.1521 139.619 20.1962C140.856 20.2078 142.092 20.2196 143.328 20.2316C144.176 20.2399 144.178 21.5573 143.328 21.549Z" fill="white"/>
<path d="M214.308 22.6271C210.675 22.5455 207.043 22.4699 203.41 22.399C199.635 22.3253 195.86 22.2566 192.085 22.1921C188.18 22.1253 184.275 22.0629 180.369 22.0043C176.401 21.9447 172.432 21.889 168.463 21.8367C164.479 21.7842 160.495 21.7352 156.511 21.6893C156.024 21.6837 155.537 21.6782 155.05 21.6726C154.203 21.6631 154.201 20.3456 155.05 20.3552C159.033 20.4003 163.015 20.4485 166.997 20.5001C170.952 20.5513 174.906 20.6059 178.859 20.6643C182.776 20.7221 186.692 20.7836 190.608 20.8495C194.418 20.9136 198.228 20.9817 202.038 21.0549C205.693 21.1251 209.348 21.1999 213.003 21.2805C213.438 21.2901 213.873 21.2998 214.308 21.3095C215.155 21.3285 215.158 22.6461 214.308 22.6271Z" fill="white"/>
<path d="M214.308 30.7737C199.394 30.4397 184.477 30.1967 169.56 29.9979C166.021 29.9507 162.503 29.9802 158.966 30.0441C157.413 30.0721 155.747 30.089 154.241 29.6475C153.002 29.2839 151.966 28.5283 150.879 27.863C149.265 26.876 147.762 26.5887 145.925 27.1638C144.34 27.6599 142.928 28.5691 141.335 29.0554C138.598 29.8905 135.756 29.7342 132.935 29.6333C125.741 29.3758 118.532 29.5728 111.335 29.3914C107.804 29.3024 104.226 29.2384 100.753 29.9863C99.0126 30.361 97.3526 31.0053 95.6405 31.4823C94.0032 31.9385 92.3404 32.2938 90.655 32.5162C87.3466 32.9529 84.059 32.7529 80.85 31.8266C77.8411 30.9581 74.9184 29.623 71.7576 29.4074C68.0397 29.1538 64.2477 29.3381 60.5208 29.3085C56.7993 29.2789 53.0777 29.2409 49.3564 29.1892C41.9569 29.0863 34.5327 29.0463 27.1414 28.6655C23.9289 28.5 20.6936 28.2013 17.4812 28.5304C15.7517 28.7075 14.0405 29.0952 12.4472 29.8006C10.9976 30.4425 9.6488 31.1936 8.05684 31.4249C6.43228 31.661 4.8037 31.5046 3.18109 31.331C2.34682 31.2418 2.33769 29.9233 3.18109 30.0135C4.91446 30.199 6.72083 30.4131 8.44164 30.021C10.0377 29.6573 11.4283 28.7367 12.9569 28.1804C15.9667 27.0848 19.2586 26.9947 22.4252 27.1029C29.5783 27.3472 36.7211 27.6575 43.8798 27.7851C51.322 27.9178 58.7653 27.9858 66.2086 28.0302C69.6314 28.0506 72.9122 27.9682 76.2237 28.9546C79.3456 29.8846 82.3416 31.1501 85.6283 31.3832C89.157 31.6334 92.6718 30.9959 96.0445 29.9945C97.7549 29.4867 99.413 28.8842 101.174 28.5625C102.838 28.2586 104.528 28.1083 106.217 28.0522C109.719 27.936 113.23 28.1418 116.732 28.1637C120.366 28.1865 124 28.2121 127.634 28.2403C130.868 28.2654 134.144 28.5356 137.374 28.3852C138.829 28.3175 140.264 28.065 141.636 27.5675C143.217 26.9944 144.637 26.0693 146.295 25.6982C147.739 25.3751 149.108 25.4906 150.45 26.1239C151.712 26.7199 152.783 27.6723 154.08 28.1952C155.596 28.8059 157.358 28.7556 158.966 28.7266C160.676 28.6957 162.381 28.5899 164.092 28.6096C178.954 28.7807 193.815 29.0236 208.673 29.3341C210.552 29.3734 212.43 29.4141 214.308 29.4562C215.155 29.4751 215.158 30.7927 214.308 30.7737Z" fill="white"/>
<path d="M214.308 38.9203C200.398 38.6088 186.473 38.5776 172.566 38.1669C169.174 38.0667 165.786 37.8696 162.393 37.7917C159.029 37.7145 155.527 37.6063 152.206 38.2278C149.134 38.8025 146.308 39.5179 143.18 38.8568C141.705 38.545 140.262 38.0761 138.764 37.878C137.025 37.648 135.226 37.691 133.474 37.6561C126.626 37.5195 119.768 37.6008 112.919 37.6117C109.568 37.6171 106.204 37.703 102.881 38.1662C99.5398 38.632 96.3048 39.5945 93.0148 40.3127C89.8623 41.0009 86.606 41.4879 83.3782 41.1186C80.2502 40.7607 77.3158 39.6212 74.3084 38.7593C67.7725 36.8862 60.7035 37.4744 53.9772 37.3978C40.0338 37.239 26.0889 36.9263 12.1638 36.1713C10.4619 36.079 8.76047 35.9803 7.05927 35.8765C6.2169 35.8251 6.21104 34.5073 7.05927 34.5591C20.9043 35.4035 34.7677 35.8063 48.6358 36.0107C52.123 36.0621 55.6109 36.1146 59.0985 36.1279C62.5424 36.141 65.9967 36.0966 69.4258 36.4684C72.598 36.8123 75.548 37.7796 78.5867 38.6997C81.8407 39.6849 85.0239 40.1419 88.4224 39.7722C91.7298 39.4125 94.9456 38.4876 98.1753 37.7288C101.355 36.9818 104.576 36.5635 107.837 36.4037C114.655 36.0697 121.541 36.2661 128.367 36.2851C131.77 36.2945 135.289 36.1493 138.673 36.5461C141.856 36.9193 144.702 38.2129 147.971 37.7233C149.525 37.4906 151.045 37.073 152.598 36.8282C154.124 36.5876 155.676 36.5225 157.22 36.4762C160.612 36.3745 164.006 36.5075 167.395 36.6498C181.301 37.2339 195.241 37.1981 209.155 37.4909C210.873 37.527 212.591 37.5644 214.308 37.6029C215.155 37.6218 215.158 38.9393 214.308 38.9203Z" fill="white"/>
<path d="M91.6051 22.1767C92.7394 22.1942 93.895 21.9964 94.9643 22.4881C95.5248 22.7459 96.1002 23.2482 96.3233 23.8346C96.6275 24.6339 96.01 25.2518 95.4312 25.7038C94.3384 26.5573 93.0091 26.9998 91.6803 27.3376C90.2622 27.6981 88.7701 27.9472 87.3039 27.8145C86.5833 27.7493 85.8669 27.611 85.1913 27.3475C84.597 27.1157 84.001 26.8271 83.5898 26.3218C83.0781 25.6929 82.8913 24.811 83.3767 24.1122C83.7809 23.5304 84.4437 23.2121 85.0916 22.9781C85.7975 22.7232 86.5434 22.5795 87.2841 22.4704C88.7083 22.2607 90.1645 22.1479 91.6051 22.1767C92.4518 22.1936 92.4546 23.5111 91.6051 23.4941C90.5868 23.4738 89.5612 23.5329 88.5482 23.6322C88.382 23.6485 88.2159 23.6664 88.0501 23.6861C87.9614 23.6966 87.8728 23.7077 87.7842 23.7192C87.6797 23.7328 87.8864 23.7048 87.782 23.7196C87.7229 23.728 87.6639 23.7364 87.6049 23.7452C87.2658 23.7956 86.9278 23.8549 86.5927 23.9275C86.2702 23.9975 85.9498 24.0792 85.6362 24.1818C85.5002 24.2263 85.3663 24.276 85.2332 24.3283C85.1389 24.3654 85.3767 24.2587 85.2361 24.3274C85.2082 24.341 85.1792 24.353 85.1512 24.3663C85.0832 24.3983 85.016 24.4321 84.95 24.4681C84.845 24.5255 84.7492 24.5934 84.6483 24.6569C84.5768 24.702 84.7491 24.569 84.6883 24.6255C84.6651 24.647 84.6386 24.6649 84.616 24.687C84.5725 24.7296 84.5302 24.7724 84.4877 24.8158C84.3858 24.92 84.5099 24.7553 84.485 24.8189C84.4721 24.8517 84.44 24.9067 84.4177 24.9336C84.3563 25.0075 84.4966 24.7794 84.4181 24.9423C84.3484 25.0873 84.4533 25.0239 84.4066 24.9598C84.4157 24.9723 84.4095 25.0889 84.4069 25.1121C84.3972 25.2001 84.365 24.963 84.4122 25.1146C84.4644 25.2823 84.536 25.4215 84.6614 25.5489C84.9989 25.8921 85.4912 26.0754 85.941 26.2177C87.1047 26.5858 88.3499 26.599 89.551 26.43C90.7479 26.2615 91.9666 25.961 93.0943 25.5236C93.6612 25.3037 94.2291 25.007 94.6964 24.6146C94.8081 24.5208 94.9442 24.4194 95.0357 24.3041C95.0599 24.2737 95.0882 24.2424 95.0997 24.203C95.0727 24.2953 95.1111 24.2602 95.0456 24.2203C94.9609 24.1687 94.8739 24.0145 94.7977 23.943C94.7154 23.8655 94.6445 23.813 94.5414 23.7514C94.1401 23.5112 93.7049 23.4677 93.2286 23.4606C92.6871 23.4526 92.1467 23.5025 91.6051 23.4941C90.7582 23.481 90.7556 22.1635 91.6051 22.1767Z" fill="white"/>
<path d="M125.403 16.5579C122.032 17.1045 118.566 16.5875 115.497 15.0852C114.641 14.6661 113.828 14.1668 113.064 13.5973C112.779 13.385 112.634 13.0274 112.828 12.696C112.992 12.4153 113.442 12.2458 113.729 12.4597C116.939 14.8522 121.088 15.9304 125.053 15.2875C125.403 15.2307 125.762 15.3785 125.863 15.7476C125.949 16.0619 125.756 16.5006 125.403 16.5579Z" fill="white"/>
<path d="M79.1189 13.1311C75.3734 14.8853 71.404 16.1393 67.3222 16.8142C66.1412 17.0094 64.9523 17.159 63.7599 17.2638C63.4051 17.295 63.1012 16.9387 63.1012 16.6051C63.1012 16.2228 63.4041 15.9776 63.7599 15.9463C67.7252 15.598 71.6387 14.6968 75.3646 13.297C76.4117 12.9036 77.4411 12.4679 78.454 11.9935C78.7759 11.8427 79.1643 11.9033 79.3552 12.2298C79.5223 12.5155 79.4425 12.9796 79.1189 13.1311Z" fill="white"/>
<path d="M149.948 32.1246C150.303 32.379 150.466 32.7928 150.243 33.1979C150.12 33.4209 149.9 33.5801 149.687 33.7085C149.223 33.9885 148.695 34.1807 148.186 34.3617C146.774 34.8638 145.234 34.4229 143.867 33.9601C143.37 33.7918 143.255 33.2489 143.576 32.8591C145.121 30.984 147.983 30.8778 149.948 32.1246C150.662 32.5776 150.002 33.7182 149.283 33.2621C148.5 32.7649 147.65 32.5471 146.721 32.6215C145.884 32.6884 145.085 33.0902 144.508 33.7907C144.411 33.4237 144.314 33.0567 144.217 32.6897C145.239 33.0357 146.576 33.5104 147.59 33.176C147.752 33.1223 147.914 33.0643 148.074 33.004C148.17 32.968 148.265 32.9304 148.36 32.8925C148.414 32.8711 148.504 32.8322 148.399 32.8775C148.456 32.8531 148.512 32.8285 148.568 32.803C148.75 32.7205 148.921 32.6262 149.093 32.5267C149.17 32.4824 149.156 32.4386 149.08 32.5429C149.098 32.5187 149.13 32.5037 149.15 32.4798C149.004 32.661 148.978 33.0431 149.283 33.2621C148.995 33.0551 148.855 32.6882 149.047 32.3609C149.214 32.0756 149.658 31.9162 149.948 32.1246Z" fill="white"/>
<path d="M180.861 76.6234C180.861 76.6234 177.052 79.7678 173.297 78.4855C174.121 80.1342 176.629 81.3183 176.629 81.3183C176.629 81.3183 176.869 79.1267 178.059 78.7603C179.25 78.3939 180.861 76.6234 180.861 76.6234Z" fill="black"/>
<path d="M181.327 77.0892C180.554 77.7245 179.665 78.2374 178.75 78.6343C176.978 79.4028 174.994 79.7424 173.121 79.1207C173.369 78.7982 173.617 78.4756 173.865 78.153C174.261 78.9203 174.966 79.5187 175.662 79.9906C176.076 80.2712 176.509 80.535 176.962 80.7495C176.631 80.9391 176.301 81.1287 175.97 81.3183C176.093 80.222 176.482 78.856 177.511 78.2823C177.902 78.0648 178.108 78.0589 178.476 77.8286C178.8 77.6256 179.046 77.4311 179.329 77.1869C179.702 76.8645 180.063 76.5221 180.395 76.1576C180.968 75.53 181.898 76.4637 181.327 77.0892C180.508 77.9863 179.507 78.9245 178.355 79.3543C178.33 79.3637 178.098 79.4565 178.228 79.3934C178.176 79.4189 178.126 79.4484 178.077 79.4799C178.015 79.5234 178.013 79.5244 178.071 79.4831C178.041 79.5089 178.012 79.5357 177.985 79.5635C177.969 79.5815 177.817 79.7627 177.893 79.6593C177.689 79.9344 177.605 80.1432 177.523 80.38C177.438 80.6264 177.372 80.8795 177.322 81.1352C177.307 81.2135 177.295 81.2924 177.281 81.371C177.254 81.522 177.303 81.1842 177.288 81.3183C177.23 81.8325 176.777 82.1152 176.297 81.8871C175.803 81.6527 175.329 81.3613 174.882 81.0489C174.037 80.4595 173.207 79.7476 172.728 78.818C172.481 78.3391 172.895 77.6587 173.472 77.8503C175.057 78.3766 176.782 78.0823 178.223 77.4361C178.797 77.1787 179.35 76.8727 179.875 76.5259C180.035 76.4199 180.192 76.309 180.347 76.1954C180.367 76.1804 180.387 76.1641 180.407 76.1496C180.492 76.09 180.256 76.2709 180.349 76.1948C180.364 76.1822 180.38 76.1702 180.395 76.1576C180.67 75.9318 181.058 75.8889 181.327 76.1576C181.56 76.3905 181.603 76.8621 181.327 77.0892Z" fill="black"/>
<path d="M181.85 67.0464C182.995 66.9515 185.989 66.5312 185.993 64.9067C185.994 64.5367 185.763 64.1951 185.462 63.9793C185.162 63.7635 184.798 63.6552 184.438 63.5724C183.166 63.2801 181.832 63.2617 180.552 63.5189C180.844 63.4603 179.174 61.4995 179.028 61.3388C178.349 60.5926 177.54 59.9529 176.603 59.5633C175.405 59.0648 174.069 58.996 172.775 59.0967C171.571 59.1905 170.339 59.4414 169.349 60.1323C168.269 60.8856 167.577 62.1059 167.26 63.3837C166.943 64.6614 166.971 66.0006 167.107 67.31C167.121 67.4385 167.136 67.571 167.2 67.6832C167.562 68.3145 169.456 67.9217 170.015 67.8822C171.342 67.7883 172.67 67.7 173.998 67.6116C176.616 67.4372 179.234 67.263 181.85 67.0464Z" fill="black"/>
<path d="M181.85 66.3877C181.938 66.3802 182.027 66.372 182.115 66.3628C182.165 66.3576 182.215 66.352 182.265 66.3462C182.303 66.3417 182.511 66.3142 182.36 66.3352C182.614 66.2999 182.867 66.2572 183.118 66.205C183.389 66.1488 183.658 66.082 183.922 65.9994C184.243 65.899 184.342 65.865 184.608 65.7257C184.716 65.6691 184.821 65.6066 184.922 65.5391C184.956 65.5162 185.059 65.4311 184.975 65.5027C185.025 65.4604 185.073 65.4169 185.119 65.3704C185.153 65.3357 185.249 65.2165 185.175 65.319C185.206 65.2762 185.233 65.2314 185.261 65.1863C185.292 65.1358 185.319 65.0469 185.283 65.1544C185.303 65.0956 185.316 65.0365 185.333 64.9767C185.352 64.904 185.33 65.0098 185.329 65.0181C185.332 64.993 185.337 64.9598 185.333 64.9348C185.327 64.8909 185.332 64.8531 185.317 64.8049C185.273 64.6713 185.158 64.568 185.046 64.4919C184.701 64.2569 184.227 64.19 183.824 64.1181C182.806 63.936 181.742 63.9567 180.728 64.1541C179.898 64.3155 179.568 63.1549 180.377 62.8837L180.241 62.9394L180.005 63.1757C179.921 63.291 179.919 63.5051 179.945 63.6031C179.928 63.5378 179.9 63.5583 179.98 63.6761C179.955 63.6388 179.937 63.5919 179.915 63.5524C179.84 63.4206 179.752 63.2958 179.664 63.1725C179.614 63.103 179.563 63.0342 179.512 62.9658C179.488 62.9342 179.464 62.9027 179.44 62.8712C179.324 62.7178 179.486 62.9291 179.414 62.8373C179.299 62.6901 179.182 62.544 179.063 62.3992C178.572 61.7991 178.055 61.2161 177.416 60.7678C176.374 60.0364 175.176 59.737 173.913 59.7172C172.743 59.6988 171.449 59.7982 170.374 60.3026C168.014 61.411 167.551 64.1719 167.699 66.5215C167.716 66.7796 167.792 67.0828 167.77 67.3392C167.77 67.3354 167.665 67.2473 167.719 67.2969C167.787 67.3588 167.733 67.31 167.694 67.2941C167.744 67.3147 167.796 67.3257 167.848 67.3415C167.884 67.3525 167.923 67.3578 167.96 67.3649C167.83 67.3398 167.963 67.3658 167.998 67.3681C168.097 67.3745 168.195 67.3799 168.294 67.3803C168.512 67.3813 168.731 67.3669 168.949 67.3467C169.968 67.2522 170.983 67.1552 172.006 67.0861C175.288 66.8642 178.571 66.6584 181.85 66.3877C182.205 66.3584 182.509 66.7115 182.509 67.0464C182.509 67.4272 182.206 67.6758 181.85 67.7052C178.591 67.9743 175.327 68.1793 172.065 68.3996C171.345 68.4481 170.62 68.4765 169.903 68.5513C169.481 68.5953 169.062 68.664 168.638 68.6879C168.194 68.7128 167.716 68.7075 167.297 68.5452C167.04 68.4454 166.803 68.2916 166.655 68.0516C166.438 67.7014 166.439 67.2585 166.407 66.86C166.178 64.0655 166.752 60.7727 169.442 59.3003C170.708 58.6076 172.218 58.4122 173.642 58.3988C175.139 58.3847 176.648 58.6852 177.914 59.5169C178.817 60.1098 179.529 60.8809 180.196 61.7163C180.607 62.2312 181.99 63.7313 180.728 64.1541C180.611 63.7306 180.494 63.3071 180.377 62.8837C181.548 62.6558 182.719 62.6288 183.899 62.8029C184.953 62.9585 186.251 63.2953 186.588 64.461C187.061 66.1016 185.227 67.0245 183.951 67.3622C183.266 67.5437 182.556 67.6454 181.85 67.7052C181.495 67.7352 181.191 67.3809 181.191 67.0465C181.191 66.6651 181.494 66.4178 181.85 66.3877Z" fill="black"/>
<path d="M169.773 26.6165C169.504 28.285 169.235 29.9534 168.967 31.6219C168.928 31.8588 168.89 32.0957 168.852 32.3325C168.795 32.684 168.358 32.8795 168.042 32.7926C167.668 32.6898 167.525 32.3348 167.582 31.9823C167.851 30.3138 168.119 28.6454 168.388 26.9769C168.426 26.74 168.465 26.5031 168.503 26.2662C168.559 25.9147 168.997 25.7193 169.313 25.8062C169.687 25.9089 169.83 26.2639 169.773 26.6165Z" fill="black"/>
<path d="M166.895 26.1528C166.626 27.8212 166.358 29.4897 166.089 31.1581C166.051 31.395 166.012 31.6319 165.974 31.8688C165.918 32.2203 165.48 32.4158 165.164 32.3289C164.79 32.2261 164.647 31.8711 164.704 31.5186C164.973 29.8501 165.242 28.1816 165.51 26.5132C165.549 26.2763 165.587 26.0394 165.625 25.8025C165.682 25.451 166.119 25.2555 166.435 25.3424C166.809 25.4452 166.952 25.8002 166.895 26.1528Z" fill="black"/>
<path d="M164.017 25.689C163.749 27.3575 163.48 29.0259 163.211 30.6944C163.173 30.9313 163.135 31.1682 163.096 31.4051C163.04 31.7566 162.602 31.952 162.286 31.8651C161.912 31.7624 161.769 31.4074 161.826 31.0548C162.095 29.3864 162.364 27.7179 162.632 26.0494C162.671 25.8125 162.709 25.5757 162.747 25.3388C162.804 24.9873 163.241 24.7918 163.557 24.8787C163.931 24.9815 164.074 25.3365 164.017 25.689Z" fill="black"/>
<path d="M178.044 54.9915C178.73 51.4929 179.471 47.5719 178.624 44.0417C178.442 43.2801 178.17 42.4951 177.673 41.8765C177.057 41.1101 176 41.023 175.133 40.7043C173.563 40.1277 172.522 38.4998 173.352 36.8661C174.15 35.2925 175.769 35.5998 177.208 35.7844L176.573 36.6183C176.096 34.3014 175.619 31.9845 175.142 29.6676C174.974 28.8497 174.635 27.8973 174.687 27.0501C174.834 24.6512 178.139 24.5211 178.78 26.7122C178.349 26.7706 177.918 26.8289 177.486 26.8873C177.167 24.2974 180.852 23.689 181.566 26.1386C181.135 26.197 180.703 26.2554 180.272 26.3137C179.953 23.7238 183.638 23.1154 184.352 25.565C183.921 25.6234 183.489 25.6818 183.058 25.7402C182.846 24.0072 184.756 22.7564 186.243 23.7236C186.925 24.1679 187.114 24.8758 187.266 25.6118C187.691 27.6775 188.116 29.7432 188.542 31.8088C189.101 34.526 189.71 37.2391 190.221 39.9661C191.468 46.6249 192.167 53.4387 192.046 60.2164C191.971 64.4357 191.464 68.5923 190.663 72.7324C189.922 76.5619 188.712 80.3059 185.957 83.1728C184.104 85.1014 180.411 87.9481 177.604 86.2328C175.445 84.9138 175.491 81.4286 176.604 79.4621C177.321 78.1947 178.645 77.7682 179.723 76.8938C181.194 75.6996 181.083 73.3708 180.752 71.6935C180.129 68.5376 178.521 65.5688 175.397 64.3317C172.66 63.2484 170.009 64.2806 168.899 67.0495C168.009 69.2731 167.99 71.7804 167.885 74.1399C167.79 76.292 167.753 78.4473 167.802 80.6011C168.003 89.3704 169.848 97.9938 174.2 105.674C178.537 113.328 184.793 119.599 190.658 126.068C196.751 132.786 202.087 140.037 206.724 147.833C209.007 151.67 211.19 155.589 213.155 159.599C214.831 163.019 216.322 166.532 218.164 169.869C220.013 173.216 222.248 176.356 225.203 178.819C226.501 179.901 228.651 180.793 228.963 182.642C229.243 184.3 227.876 185.626 226.596 186.43C224.754 187.588 222.493 188.293 220.438 188.966C218.272 189.676 216.059 190.243 213.819 190.66C211.985 191.002 209.728 191.377 208.415 189.701C207.976 189.14 207.729 188.423 207.865 187.71C208.02 186.903 208.81 186.629 209.565 186.71C211.48 186.915 212.015 189.08 211.376 190.63C210.833 191.947 209.608 192.824 208.251 193.166C204.696 194.061 201.815 191.632 200.124 188.733C199.091 186.961 198.332 185.023 197.518 183.143C196.673 181.196 195.841 179.242 195.009 177.289C193.315 173.313 191.618 169.338 189.814 165.41C186.207 157.561 182.164 149.804 176.822 142.978C171.191 135.783 165.957 128.254 162.162 119.909C158.424 111.69 156.293 102.929 155.626 93.9332C155.263 89.0399 155.243 84.1106 155.22 79.2059C155.196 74.2071 155.26 69.2081 155.394 64.2111C155.588 56.9765 156.131 49.7901 156.881 42.5928C157.037 41.0949 157.197 39.5972 157.37 38.1011L157.563 38.5669C156.265 37.4926 154.103 36.3154 154.437 34.3427C154.65 33.0854 155.822 32.2009 157.085 32.2989C157.925 32.364 158.69 32.9355 159.406 33.3356C159.083 33.4668 158.761 33.598 158.438 33.7293C158.855 31.425 159.272 29.1208 159.689 26.8165C159.835 26.0066 159.873 25.0211 160.233 24.2659C161.233 22.1662 164.387 23.102 164.164 25.3866L162.87 25.2115C163.527 22.7353 167.218 23.306 166.963 25.893L165.669 25.7179C166.326 23.2417 170.017 23.8124 169.762 26.3994C169.33 26.3411 168.899 26.2827 168.468 26.2243C168.924 24.5108 171.247 23.9296 172.247 25.5413C172.704 26.2788 172.545 27.0376 172.403 27.8221C172 30.0484 171.597 32.2748 171.194 34.5011C170.556 38.0286 169.993 41.5053 169.625 45.0757C169.235 48.8652 168.88 52.7302 169.142 56.5404C169.2 57.3866 167.882 57.383 167.824 56.5404C167.442 50.9765 168.194 45.2721 168.944 39.7642C169.363 36.6854 170.018 33.6304 170.571 30.5737C170.753 29.5679 170.935 28.562 171.117 27.5562C171.159 27.3226 171.231 27.0746 171.247 26.837C171.315 25.8314 170.015 25.5344 169.738 26.5746C169.553 27.27 168.369 27.1569 168.444 26.3994C168.548 25.3523 167.224 24.9953 166.939 26.0681C166.754 26.764 165.57 26.6503 165.645 25.893C165.749 24.8459 164.425 24.4889 164.14 25.5617C163.955 26.2577 162.772 26.1439 162.846 25.3866C162.957 24.259 161.634 24.0479 161.328 25.1272C161.267 25.3422 161.247 25.5778 161.207 25.7974C161.023 26.8165 160.838 27.8356 160.654 28.8546C160.339 30.5963 160.024 32.3379 159.708 34.0795C159.63 34.5109 159.083 34.6644 158.741 34.4731C158.194 34.1674 157.448 33.5525 156.787 33.6046C156.051 33.6626 155.573 34.3853 155.764 35.081C155.877 35.4901 156.165 35.7072 156.471 35.9602C157.099 36.4802 157.813 36.9661 158.386 37.5456C158.665 37.8272 158.685 38.0392 158.654 38.3984C158.315 42.3247 157.811 46.2381 157.472 50.1657C156.943 56.2835 156.727 62.4042 156.613 68.543C156.474 76.1171 156.437 83.7184 156.785 91.2876C157.101 98.1516 158.188 104.964 160.301 111.511C162.444 118.15 165.601 124.405 169.33 130.289C171.186 133.218 173.181 136.059 175.267 138.829C177.304 141.535 179.436 144.153 181.317 146.974C184.952 152.429 187.96 158.277 190.709 164.22C193.457 170.16 195.944 176.216 198.544 182.221C199.711 184.917 200.739 188.018 202.807 190.181C204.461 191.912 207.496 192.913 209.493 191.081C209.916 190.692 210.234 190.161 210.322 189.588C210.444 188.792 209.859 187.572 208.905 188.155C209.006 188.024 209.107 187.892 209.208 187.761C208.782 189.248 210.678 189.706 211.749 189.642C213.139 189.559 214.55 189.195 215.901 188.875C218.695 188.214 221.439 187.323 224.082 186.201C225.964 185.402 229.309 183.483 226.581 181.479C224.719 180.11 222.969 178.724 221.44 176.975C218.432 173.534 216.35 169.44 214.414 165.332C212.276 160.795 210.058 156.327 207.59 151.956C204.845 147.095 201.881 142.352 198.607 137.828C195.437 133.449 191.916 129.378 188.265 125.397C181.227 117.724 174.023 110.036 170.132 100.203C168.249 95.4451 167.194 90.4092 166.742 85.3203C166.513 82.735 166.438 80.1376 166.47 77.5429C166.503 74.8363 166.538 72.0665 166.946 69.3867C167.254 67.3679 167.935 65.1955 169.561 63.8413C170.728 62.8695 172.233 62.4435 173.74 62.5887C177.077 62.9102 179.926 65.3971 181.143 68.4452C182.043 70.6975 182.673 73.35 181.968 75.7436C181.412 77.6277 179.936 78.1954 178.486 79.2747C177.301 80.1568 176.999 81.9768 177.268 83.3523C177.398 84.0127 177.681 84.7166 178.269 85.0952C179.028 85.5839 180.103 85.3815 180.902 85.1118C182.902 84.4374 184.622 82.8446 185.921 81.2267C187.448 79.3258 188.308 76.9862 188.896 74.6455C190.158 69.6276 190.712 64.4097 190.74 59.2433C190.778 52.1167 190.001 44.9032 188.471 37.9395C187.614 34.0398 186.851 30.118 186.046 26.2073C185.994 25.9553 185.955 25.6965 185.889 25.4474C185.602 24.3484 184.236 24.6007 184.376 25.7401C184.468 26.4955 183.283 26.6044 183.082 25.9153C182.772 24.8509 181.461 25.2702 181.59 26.3137C181.683 27.069 180.497 27.1779 180.296 26.4889C179.986 25.4245 178.675 25.8438 178.804 26.8873C178.897 27.6429 177.711 27.751 177.51 27.0625C177.214 26.05 175.923 26.3682 176.014 27.3804C176.034 27.61 176.11 27.8467 176.156 28.0721C176.367 29.0975 176.578 30.1229 176.79 31.1482C177.141 32.8549 177.492 34.5614 177.844 36.2681C177.919 36.6366 177.664 37.1603 177.208 37.1019C176.622 37.0266 175.904 36.8132 175.311 36.8998C174.14 37.071 174.164 38.6544 175.009 39.2093C175.873 39.7765 177.015 39.7661 177.9 40.3274C178.71 40.8418 179.212 41.7257 179.554 42.5981C180.344 44.61 180.343 46.9237 180.203 49.0491C180.064 51.1645 179.722 53.2632 179.314 55.3418C179.152 56.173 177.881 55.8211 178.044 54.9915Z" fill="black"/>
<path d="M184.4 25.5909C184.75 27.1838 185.1 28.7767 185.451 30.3696C185.5 30.5966 185.55 30.8235 185.6 31.0505C185.676 31.3976 185.496 31.763 185.14 31.8608C184.81 31.9514 184.406 31.7497 184.33 31.4007C183.98 29.8078 183.63 28.2149 183.279 26.622C183.23 26.395 183.18 26.1681 183.13 25.9411C183.054 25.594 183.234 25.2285 183.59 25.1308C183.92 25.0402 184.324 25.2419 184.4 25.5909Z" fill="black"/>
<path d="M181.557 26.2335C181.907 27.8264 182.257 29.4193 182.607 31.0122C182.657 31.2391 182.707 31.4661 182.757 31.6931C182.833 32.0402 182.652 32.4056 182.297 32.5034C181.967 32.594 181.563 32.3923 181.486 32.0433C181.136 30.4504 180.786 28.8575 180.436 27.2646C180.386 27.0376 180.336 26.8106 180.287 26.5837C180.21 26.2365 180.391 25.8711 180.747 25.7734C181.076 25.6828 181.48 25.8844 181.557 26.2335Z" fill="black"/>
<path d="M178.714 26.8761C179.064 28.469 179.414 30.0619 179.764 31.6548C179.814 31.8818 179.864 32.1087 179.914 32.3357C179.99 32.6828 179.809 33.0483 179.454 33.146C179.124 33.2366 178.72 33.0349 178.643 32.6859C178.293 31.093 177.943 29.5001 177.593 27.9072C177.543 27.6802 177.493 27.4533 177.443 27.2263C177.367 26.8792 177.548 26.5137 177.903 26.416C178.233 26.3254 178.637 26.5271 178.714 26.8761Z" fill="black"/>
<path d="M183.675 36.7247C181.778 36.1872 179.784 36.2886 177.943 36.9861C177.61 37.1121 177.221 36.8462 177.133 36.526C177.031 36.1557 177.259 35.8422 177.593 35.7157C179.639 34.9404 181.921 34.858 184.025 35.4543C184.839 35.6852 184.493 36.9568 183.675 36.7247Z" fill="black"/>
<path d="M99.1346 172.67C106.436 169.59 112.184 163.22 114.405 155.606C115.618 151.449 115.834 146.986 114.976 142.739C114.787 141.801 114.583 140.83 114.248 139.931C114.119 139.587 113.899 139.008 113.541 138.83C113.05 138.586 112.785 138.947 112.639 139.367C112.378 140.124 112.564 140.935 112.764 141.68C113.046 142.731 113.444 143.743 113.935 144.713C115.758 148.309 118.625 151.176 121.389 154.049C124.291 157.065 126.734 160.5 128.955 164.037C131.228 167.658 133.306 171.407 135.351 175.161C137.545 179.188 139.637 183.379 141.172 187.709C142.109 190.352 142.35 193.201 143.305 195.85C143.524 196.457 143.777 197.058 144.124 197.604C144.534 198.248 144.873 198.536 145.677 198.263C147.684 197.581 149.047 195.575 149.072 193.483L149.731 194.142C149.081 194.198 149.161 195.252 149.292 195.665C149.487 196.275 149.928 196.787 150.448 197.149C151.614 197.96 153.132 197.936 154.478 197.712C157.154 197.267 159.992 196.252 162.393 194.993C164.706 193.78 166.493 191.474 165.015 188.891C164.407 187.829 163.537 186.954 162.75 186.027C162.026 185.174 161.365 184.269 160.768 183.323C158.162 179.194 156.722 174.476 154.821 170.013C152.726 165.095 149.787 160.535 146.728 156.168C140.256 146.928 132.646 138.571 125.665 129.727C118.876 121.127 112.619 111.96 108.821 101.611C106.895 96.3648 105.692 90.9464 105.789 85.3361C105.837 82.5971 106.151 79.8686 106.596 77.1678C107.055 74.3901 107.517 71.5067 108.411 68.8308C109.064 66.8755 110.116 64.8505 111.996 63.8277C113.424 63.0514 115.116 62.9898 116.642 63.5095C120.318 64.7621 122.318 68.2228 122.815 71.8967C123.112 74.0959 123.083 76.8068 121.597 78.6158C120.528 79.9169 118.662 79.9104 117.555 81.0822C116.557 82.1394 116.091 84.0362 116.578 85.4218C117.243 87.3126 119.662 86.8711 121.128 86.3091C125.705 84.5543 128.269 80.3316 129.887 75.9402C131.6 71.2906 132.852 66.5384 133.582 61.6355C134.584 54.9006 134.868 47.9722 134.443 41.1732C134.196 37.2174 134.046 33.2538 133.852 29.2951C133.839 29.0207 133.849 28.7327 133.811 28.4604C133.673 27.4657 132.317 27.392 132.282 28.4757C132.253 29.3478 131.071 29.294 130.964 28.4757C130.834 27.4733 129.471 27.6528 129.441 28.6147C129.413 29.487 128.23 29.4329 128.123 28.6147C127.993 27.6123 126.63 27.7918 126.6 28.7538C126.572 29.6264 125.39 29.5715 125.282 28.7538C125.14 27.6704 123.815 28.023 123.763 28.9774C123.751 29.2073 123.786 29.4498 123.797 29.6795C123.848 30.7247 123.9 31.7699 123.951 32.8151C124.036 34.5609 124.122 36.3067 124.207 38.0526C124.228 38.4794 123.769 38.8024 123.373 38.6878C122.82 38.5276 122.049 38.1481 121.458 38.2174C120.168 38.3689 120.348 40.0544 121.184 40.621C121.982 41.1621 122.956 41.3832 123.685 42.0421C124.371 42.6621 124.737 43.6163 124.926 44.5028C125.369 46.5917 125.043 48.8086 124.595 50.8681C124.144 52.9413 123.484 54.9623 122.762 56.955C122.476 57.7459 121.202 57.4045 121.492 56.6047C122.721 53.2119 124.053 49.4488 123.783 45.7874C123.724 44.9932 123.566 44.1331 123.142 43.4451C122.645 42.6402 121.661 42.3868 120.871 41.9619C119.413 41.1783 118.631 39.4648 119.615 37.9617C120.627 36.4143 122.288 37.0018 123.724 37.4173C123.446 37.6291 123.168 37.8408 122.89 38.0525C122.773 35.6711 122.657 33.2897 122.54 30.9083C122.498 30.0452 122.276 28.9328 122.588 28.0982C122.928 27.1911 123.874 26.6216 124.834 26.7725C125.882 26.9371 126.469 27.7558 126.6 28.7538H125.282C125.318 27.6305 126.108 26.6379 127.292 26.605C128.502 26.5714 129.294 27.49 129.441 28.6147H128.123C128.159 27.4914 128.949 26.4989 130.133 26.466C131.343 26.4323 132.135 27.351 132.282 28.4757H130.964C131.036 26.281 134.015 25.4823 134.943 27.6031C135.242 28.2852 135.165 29.2085 135.201 29.9364C135.343 32.836 135.485 35.7355 135.627 38.635C135.842 43.0243 136.006 47.3929 135.813 51.7906C135.602 56.6199 135.088 61.4534 134.11 66.1902C133.584 68.7358 132.896 71.2322 132.058 73.6919C131.202 76.202 130.348 78.7347 128.999 81.0324C127.851 82.9875 126.367 84.6238 124.519 85.9349C122.828 87.1342 120.682 88.2336 118.547 88.1016C114.655 87.8608 114.321 83.2011 116.254 80.5958C116.79 79.8744 117.454 79.4686 118.267 79.1135C119.029 78.7808 119.904 78.5166 120.485 77.8908C122.223 76.0198 121.745 72.5284 121.178 70.2938C120.356 67.0538 116.624 63.2682 113.002 64.799C110.675 65.7829 109.77 68.577 109.213 70.8208C108.477 73.79 107.907 76.8344 107.519 79.8688C106.75 85.887 107.129 91.7875 108.873 97.608C112.251 108.883 118.815 118.857 126.009 128.048C133.284 137.342 141.29 146.067 148.047 155.763C151.235 160.337 154.203 165.096 156.341 170.258C158.286 174.953 159.823 179.953 162.879 184.086C164.264 185.959 166.407 187.613 166.839 190.026C167.277 192.469 165.661 194.573 163.672 195.784C162.548 196.468 161.297 196.94 160.074 197.411C158.663 197.955 157.23 198.449 155.757 198.792C153.357 199.35 150.459 199.464 148.753 197.355C147.638 195.977 147.379 193.027 149.731 192.824C150.083 192.794 150.393 193.151 150.389 193.483C150.366 195.449 149.444 197.3 147.9 198.517C146.715 199.451 144.894 200.308 143.631 199.089C142.711 198.201 142.237 196.843 141.849 195.659C141.354 194.147 141.008 192.588 140.661 191.037C139.758 187.006 138.004 183.267 136.169 179.578C133.997 175.21 131.579 170.934 129.072 166.75C126.572 162.578 123.84 158.496 120.458 154.98C117.407 151.809 114.196 148.596 112.386 144.512C111.667 142.889 110.808 140.812 111.369 139.017C111.899 137.319 113.833 136.878 114.918 138.376C115.459 139.123 115.686 140.064 115.914 140.942C116.227 142.149 116.451 143.376 116.602 144.614C116.89 146.974 116.869 149.362 116.559 151.719C115.258 161.607 108.645 170.076 99.4848 173.94C98.7049 174.269 98.3641 172.995 99.1346 172.67Z" fill="black"/>
<path d="M41.9115 134.104C43.8262 139.13 47.7192 143.125 51.1059 147.19C54.6884 151.489 58.2088 155.844 61.5339 160.347C64.8817 164.88 68.1447 169.558 70.7574 174.561C73.2891 179.409 75.2297 184.53 77.177 189.632C77.7217 191.059 78.268 192.486 78.8301 193.906C79.1234 194.647 79.4207 195.387 79.7243 196.124C80.0211 196.844 80.2627 197.665 80.6604 198.335C80.9283 198.786 81.1306 198.83 81.6365 198.684C81.9366 198.598 82.2308 198.486 82.5143 198.356C83.0954 198.089 83.6504 197.743 84.1404 197.332C85.1305 196.501 85.8882 195.433 86.3306 194.218C86.4315 194.466 86.5324 194.714 86.6333 194.962C86.2133 194.769 86.1731 195.754 86.3206 195.965C86.6589 196.448 87.4041 196.576 87.946 196.64C89.2474 196.794 90.607 196.731 91.9061 196.59C94.6323 196.295 97.485 195.489 99.8311 194.04C100.9 193.38 102.267 192.28 102.213 190.883C102.171 189.804 101.338 188.928 100.622 188.202C99.0797 186.639 97.6445 185.144 96.498 183.251C94.1045 179.301 92.7388 174.833 90.9833 170.587C88.9643 165.704 86.0718 161.169 83.0758 156.834C76.5885 147.45 68.893 138.998 61.8184 130.068C55.019 121.486 48.7343 112.358 44.8655 102.044C42.9059 96.8201 41.6317 91.4076 41.6679 85.8044C41.6856 83.0692 41.975 80.3433 42.403 77.6438C42.8459 74.85 43.3283 71.9829 44.1544 69.2735C44.7736 67.2431 45.7676 65.1319 47.6334 63.9705C49.0156 63.1102 50.714 62.9727 52.2598 63.4259C55.9448 64.506 58.1048 67.9586 58.6534 71.5782C58.9866 73.7773 59.0259 76.4178 57.6983 78.329C57.2374 78.9926 56.611 79.4512 55.885 79.7905C55.1576 80.1305 54.2956 80.3461 53.6688 80.8618C52.5316 81.7976 52.0557 83.7051 52.374 85.1045C52.831 87.1141 55.0585 86.9682 56.64 86.4419C61.3669 84.8689 64.0749 80.5019 65.7205 76.0763C67.4562 71.4087 68.7197 66.6268 69.4561 61.7004C70.4656 54.9463 70.7523 47.9981 70.327 41.179C70.0802 37.2213 69.9299 33.2558 69.736 29.2951C69.7226 29.0211 69.7331 28.7326 69.6951 28.4604C69.5564 27.4658 68.2008 27.3921 68.1656 28.4757C68.1372 29.3479 66.9546 29.2941 66.8481 28.4757C66.7176 27.4734 65.355 27.6529 65.3246 28.6148C65.297 29.4871 64.1136 29.433 64.0071 28.6148C63.8766 27.6124 62.514 27.7919 62.4836 28.7538C62.456 29.6265 61.2733 29.5716 61.1661 28.7538C61.0241 27.6704 59.6983 28.023 59.6467 28.9775C59.6343 29.2073 59.6698 29.4499 59.6811 29.6795C59.7322 30.7247 59.7834 31.7699 59.8345 32.8151C59.92 34.561 60.0055 36.3068 60.0909 38.0526C60.1118 38.4795 59.653 38.8024 59.2571 38.6878C58.7039 38.5277 57.9325 38.1482 57.3421 38.2175C56.0514 38.369 56.2313 40.0544 57.0675 40.621C57.8661 41.1621 58.8399 41.3833 59.569 42.0421C60.255 42.6621 60.6212 43.6164 60.8093 44.5029C61.2526 46.5918 60.9268 48.8086 60.479 50.8681C60.0282 52.9414 59.3682 54.9624 58.6461 56.955C58.3595 57.746 57.0859 57.4046 57.3757 56.6048C58.6052 53.2119 59.9371 49.4489 59.6663 45.7874C59.6076 44.9933 59.45 44.1332 59.0255 43.4452C58.5286 42.6402 57.545 42.3868 56.7548 41.962C55.2972 41.1784 54.515 39.4649 55.4985 37.9618C56.511 36.4144 58.1719 37.0019 59.6073 37.4174L58.7735 38.0526C58.6569 35.6712 58.5404 33.2897 58.4238 30.9083C58.3815 30.0453 58.1593 28.9329 58.472 28.0982C58.8119 27.1912 59.7578 26.6217 60.7182 26.7726C61.7653 26.9371 62.3527 27.7559 62.4836 28.7538H61.1661C61.2016 27.6306 61.9919 26.638 63.1758 26.6051C64.386 26.5715 65.1782 27.4901 65.3246 28.6148H64.0071C64.0426 27.4915 64.8329 26.499 66.0168 26.4661C67.227 26.4324 68.0192 27.351 68.1656 28.4757H66.8481C66.9195 26.2806 69.8986 25.4821 70.8268 27.6032C71.1254 28.2854 71.0491 29.2082 71.0848 29.9365C71.2277 32.8577 71.3707 35.7788 71.5137 38.7C71.7332 43.1848 71.8924 47.6482 71.6812 52.1412C71.4517 57.0228 70.9134 61.9103 69.8877 66.6918C69.3372 69.2586 68.5954 71.7536 67.7584 74.2396C66.9145 76.746 65.9994 79.2719 64.5852 81.5218C63.3811 83.4375 61.8137 85.0244 59.9211 86.2636C58.1754 87.4065 55.9837 88.3927 53.8495 88.035C50.1332 87.4122 50.4061 82.3523 52.5073 80.1508C53.7021 78.8988 55.79 78.9473 56.7249 77.4071C58.0357 75.2479 57.6491 71.9842 56.8882 69.6978C55.8232 66.498 51.7327 62.9706 48.2983 65.1082C46.0699 66.4951 45.3776 69.4991 44.8509 71.8791C44.187 74.8793 43.604 77.9096 43.2734 80.9663C42.6203 87.0053 43.2321 92.8536 45.0752 98.6386C48.679 109.95 55.4398 119.91 62.7499 129.137C70.1568 138.486 78.2376 147.323 84.9319 157.22C87.9741 161.718 90.7335 166.382 92.7389 171.438C94.5269 175.945 96.0139 180.852 99.0865 184.694C100.424 186.367 102.554 187.671 103.311 189.745C104.215 192.221 102.102 194.278 100.124 195.396C97.7143 196.758 94.9518 197.545 92.2154 197.872C90.8188 198.039 89.3796 198.103 87.9774 197.962C86.9855 197.863 85.9173 197.601 85.2758 196.774C84.2023 195.389 85.5351 193.016 87.2982 193.825C87.5427 193.937 87.6926 194.317 87.6009 194.568C86.8356 196.67 85.3162 198.456 83.2908 199.441C82.4205 199.865 81.1053 200.477 80.1948 199.873C79.7775 199.596 79.5879 199.147 79.3942 198.704C79.0927 198.013 78.8026 197.318 78.515 196.622C76.2304 191.092 74.3117 185.415 71.8846 179.944C66.9648 168.854 59.2938 159.158 51.6166 149.86C47.6456 145.051 42.8993 140.382 40.6411 134.454C40.3389 133.661 41.6122 133.318 41.9115 134.104Z" fill="black"/>
<path d="M188.325 90.4358C185.479 98.0265 189.16 106.065 190.211 113.651C191.265 121.262 191.275 129.357 188.468 136.622C186.434 141.884 182.546 146.543 177.027 148.274C170.445 150.339 163.358 147.797 158.097 143.741C152.564 139.475 148.495 133.597 144.998 127.626C141.594 121.815 138.6 115.773 135.065 110.036C131.791 104.724 127.897 99.4841 122.427 96.27C116.798 92.9634 109.637 92.182 103.694 95.1713C97.4026 98.336 94.8763 105.024 94.8353 111.744C94.7883 119.463 97.8285 126.597 99.4346 134.033C100.188 137.519 100.887 141.446 99.8885 144.952C99.0563 147.872 96.8206 150.595 93.6736 151.031C90.7868 151.43 88.0184 149.877 85.8144 148.175C83.2099 146.165 81.001 143.659 78.9516 141.1C74.3456 135.348 70.7033 128.915 67.4538 122.321C65.8026 118.971 64.2458 115.575 62.6928 112.178C61.3741 109.294 60.1409 106.358 58.6934 103.535C57.326 100.868 55.697 98.289 53.4247 96.2979C50.9339 94.1155 47.6958 92.7858 44.37 92.7802C40.7946 92.7742 37.4466 94.3469 35.3353 97.2601C33.3755 99.9645 32.5168 103.341 32.4605 106.647C32.3885 110.874 33.4625 115.002 34.4887 119.069C35.5177 123.147 36.5014 127.245 37.1229 131.408C38.0549 137.652 38.1947 144.048 36.2989 150.122C34.9695 154.382 32.8294 159.003 29.0628 161.635C27.3623 162.823 25.3014 163.42 23.2296 163.181C22.013 163.041 20.8468 162.659 19.7521 162.114C18.0734 161.279 16.6981 159.968 15.063 159.061C13.7063 158.309 11.8089 157.806 10.3832 158.672C8.94221 159.548 8.89629 161.614 10.0524 162.733L9.01781 162.867C9.17747 162.559 8.51285 162.388 8.42659 162.397C8.24962 162.415 8.05516 162.567 7.91783 162.664C7.59468 162.894 7.3414 163.228 7.11319 163.546C6.70836 164.11 6.35455 164.712 6.0444 165.333C5.40289 166.617 4.9807 168.004 4.6739 169.403C4.11876 171.934 3.75961 174.706 3.81798 177.303C3.83798 178.193 3.93666 179.267 4.50587 179.997C5.35478 181.085 6.87764 180.599 7.87268 180.006C9.07492 179.289 10.124 178.465 11.4794 178.031C12.5977 177.673 13.7974 177.569 14.9639 177.682C17.5448 177.931 19.9731 178.961 22.4756 179.574C25.0553 180.205 27.7021 180.523 30.3575 180.538C35.621 180.568 40.8924 179.422 45.6893 177.258C51.0939 174.821 55.8703 171.161 59.6015 166.552C60.1351 165.893 61.0622 166.83 60.5331 167.484C52.9763 176.818 40.9928 182.364 28.9627 181.82C25.8846 181.68 22.8706 181.116 19.9217 180.234C17.1198 179.397 14.1804 178.326 11.3059 179.49C9.07297 180.394 6.19728 183.508 3.76907 181.139C2.11331 179.523 2.47615 176.728 2.64415 174.659C2.92819 171.16 3.38474 167.553 5.04175 164.404C5.72006 163.114 6.79256 161.182 8.4398 161.074C9.74969 160.989 10.7716 162.343 10.1554 163.532C9.95592 163.916 9.41208 163.947 9.12079 163.665C7.04478 161.656 7.79941 158.065 10.5646 157.151C14.0023 156.014 16.7858 158.775 19.4438 160.429C21.5389 161.733 24.0489 162.362 26.4376 161.529C28.5355 160.798 30.201 159.105 31.4527 157.325C39.1896 146.319 36.3911 132.032 33.3493 119.939C31.5725 112.875 29.5728 105.078 33.186 98.2315C34.7008 95.3611 37.1647 93.1016 40.2726 92.0893C43.4444 91.0562 46.9651 91.3412 50.0151 92.634C55.7516 95.0656 58.8281 100.518 61.2973 105.927C64.2733 112.447 67.1493 119.02 70.4766 125.371C73.9576 132.015 77.983 138.442 83.1374 143.927C85.207 146.13 87.6487 148.409 90.5704 149.387C93.9622 150.522 97.0877 148.712 98.345 145.427C99.7099 141.86 98.8932 137.649 98.0901 134.045C97.2076 130.086 95.9229 126.231 94.9417 122.297C93.3322 115.843 92.6119 108.654 95.2881 102.372C97.8456 96.3681 103.48 92.7274 109.884 92.0841C116.27 91.4424 122.434 93.9641 127.201 98.1183C131.934 102.244 135.307 107.696 138.404 113.089C141.87 119.123 144.944 125.397 148.766 131.221C152.66 137.154 157.579 142.928 164.183 145.893C170.267 148.625 177.406 148.319 182.401 143.6C187.522 138.762 189.209 131.251 189.498 124.465C189.671 120.401 189.335 116.316 188.687 112.303C188.067 108.463 186.918 104.729 186.326 100.883C185.767 97.2529 185.75 93.5654 187.055 90.0855C187.35 89.2989 188.624 89.6396 188.325 90.4358Z" fill="black"/>
<path d="M120.989 78.3173C120.989 78.3173 116.742 80.8396 113.228 78.9959C113.79 80.7516 116.086 82.3068 116.086 82.3068C116.086 82.3068 116.659 80.1779 117.892 79.9986C119.125 79.8194 120.989 78.3173 120.989 78.3173Z" fill="black"/>
<path d="M121.321 78.886C120.466 79.3921 119.487 79.7541 118.528 80.0023C116.649 80.4892 114.649 80.4656 112.896 79.5647L113.863 78.8208C114.121 79.5923 114.739 80.2864 115.36 80.8688C115.615 81.1077 115.881 81.3335 116.156 81.5488C116.041 81.4582 116.161 81.5518 116.208 81.5868C116.246 81.6146 116.284 81.6412 116.321 81.6696C116.353 81.6936 116.386 81.7158 116.419 81.738C116.096 81.8692 115.773 82.0004 115.451 82.1317C115.739 81.0746 116.381 79.7933 117.487 79.4214C117.803 79.3149 118.132 79.2821 118.443 79.1489C118.719 79.0312 119.134 78.7956 119.444 78.6017C119.724 78.4268 119.997 78.2406 120.264 78.046C120.357 77.9785 120.447 77.9083 120.539 77.8403C120.357 77.9751 120.48 77.886 120.523 77.8514C120.8 77.6288 121.184 77.5807 121.454 77.8514C121.685 78.082 121.733 78.559 121.454 78.783C121.083 79.0811 120.696 79.3605 120.297 79.6198C119.659 80.0339 118.945 80.4567 118.193 80.6116C118.112 80.6282 118.031 80.6393 117.95 80.6571C117.913 80.6654 117.78 80.7172 117.885 80.6705C117.813 80.7026 117.745 80.745 117.679 80.7892C117.618 80.8333 117.614 80.8358 117.669 80.7967C117.638 80.8233 117.607 80.8507 117.578 80.8791C117.349 81.0988 117.269 81.2301 117.096 81.5524C117.031 81.6723 116.975 81.7956 116.918 81.9188C116.867 82.0266 116.949 81.8289 116.885 81.9994C116.865 82.0549 116.843 82.11 116.823 82.1658C116.786 82.2699 116.75 82.3751 116.721 82.4819C116.616 82.8699 116.109 83.1172 115.754 82.8755C114.436 81.9795 113.107 80.7114 112.593 79.171C112.4 78.5929 113.081 78.1804 113.561 78.4271C115.052 79.1933 116.769 79.1189 118.323 78.6932C118.658 78.6014 118.989 78.4936 119.315 78.3717C119.447 78.3222 119.578 78.2703 119.708 78.2163C119.565 78.2755 119.776 78.1864 119.801 78.1754C119.861 78.1487 119.921 78.1215 119.981 78.0938C120.21 77.9877 120.439 77.877 120.656 77.7485C121.388 77.3159 122.051 78.4543 121.321 78.886Z" fill="black"/>
<path d="M117.745 27.1054C117.223 28.7107 116.702 30.316 116.181 31.9213C116.106 32.1516 116.032 32.382 115.957 32.6123C115.847 32.9506 115.501 33.1697 115.146 33.0724C114.815 32.9811 114.576 32.6018 114.686 32.262C115.208 30.6567 115.729 29.0514 116.25 27.4461C116.325 27.2158 116.399 26.9855 116.474 26.7552C116.584 26.4169 116.93 26.1978 117.284 26.2951C117.616 26.3863 117.855 26.7656 117.745 27.1054Z" fill="black"/>
<path d="M114.972 26.2053C114.451 27.8107 113.93 29.416 113.409 31.0212C113.334 31.2516 113.259 31.4819 113.184 31.7122C113.074 32.0505 112.728 32.2696 112.374 32.1723C112.042 32.0811 111.804 31.7017 111.914 31.362C112.435 29.7567 112.956 28.1513 113.477 26.5461L113.702 25.8551C113.811 25.5168 114.158 25.2977 114.512 25.395C114.844 25.4862 115.082 25.8656 114.972 26.2053Z" fill="black"/>
<path d="M112.199 25.3052C111.678 26.9105 111.157 28.5159 110.636 30.1211L110.412 30.8121C110.302 31.1504 109.956 31.3695 109.601 31.2722C109.27 31.181 109.031 30.8016 109.141 30.4618C109.662 28.8565 110.184 27.2512 110.705 25.646C110.78 25.4156 110.854 25.1853 110.929 24.955C111.039 24.6167 111.385 24.3976 111.739 24.4949C112.071 24.5861 112.31 24.9655 112.199 25.3052Z" fill="black"/>
<path d="M93.3416 95.3945C93.0861 90.4703 93.4835 85.5422 94.164 80.6661C94.8562 75.7054 95.8583 70.7948 96.8815 65.8937C97.763 61.6716 98.5511 57.4266 99.4952 53.2181C100.289 49.6784 101.172 46.1585 102.085 42.6478C102.43 41.321 102.78 39.9957 103.136 38.6718C103.315 38.0076 103.459 37.3182 103.681 36.6666C103.691 36.6355 103.698 36.6027 103.707 36.571C103.763 36.7847 103.82 36.9983 103.876 37.212C103.2 36.4487 102.499 35.7013 101.846 34.9186C101.026 33.9375 101.033 32.493 101.924 31.5549C102.676 30.7631 103.902 30.5829 104.865 31.0749C105.449 31.373 105.97 31.8917 106.484 32.2937L105.383 32.5844C105.896 31.102 106.409 29.6196 106.922 28.1373C107.268 27.1367 107.614 26.1361 107.961 25.1355C108.14 24.6173 108.277 24.0082 108.559 23.532C109.102 22.6169 110.256 22.234 111.226 22.6706C112.184 23.1017 112.647 24.2048 112.34 25.1983C111.917 25.0815 111.493 24.9648 111.07 24.8481C111.476 23.7963 112.57 23.1418 113.689 23.5091C114.776 23.8657 115.361 25.0437 115.028 26.1284C114.605 26.0117 114.181 25.8949 113.758 25.7782C114.164 24.7265 115.258 24.072 116.377 24.4392C117.464 24.7958 118.049 25.9738 117.716 27.0586C117.293 26.9418 116.869 26.8251 116.446 26.7083C116.822 25.7306 117.748 25.1222 118.807 25.306C119.792 25.477 120.508 26.4001 120.494 27.3892C120.487 27.971 120.204 28.5663 120.017 29.1075C119.253 31.3161 118.489 33.5246 117.724 35.7331C117.266 37.0577 116.778 38.376 116.349 39.7106C115.727 41.6486 115.203 43.6253 114.687 45.5937C113.837 48.8404 113.017 52.1545 112.612 55.4804C112.568 55.8435 112.53 56.2073 112.5 56.5718C112.47 56.9264 112.218 57.2306 111.841 57.2306C111.508 57.2306 111.153 56.9284 111.182 56.5718C111.451 53.355 112.183 50.1711 112.958 47.0443C113.553 44.6402 114.21 42.2499 114.922 39.8777C115.205 38.9347 115.545 38.0097 115.867 37.0794C116.636 34.8571 117.405 32.6347 118.174 30.4123C118.443 29.6362 118.711 28.86 118.98 28.0838C119.025 27.952 119.075 27.8208 119.117 27.6878C119.283 27.1623 118.979 26.5148 118.349 26.5867C118.076 26.6179 117.817 26.7958 117.716 27.0586C117.589 27.3904 117.273 27.6195 116.906 27.5186C116.57 27.4262 116.341 27.0497 116.446 26.7083C116.568 26.3111 116.437 25.876 116.027 25.7095C115.647 25.5552 115.178 25.7397 115.028 26.1284C114.9 26.4601 114.585 26.6894 114.218 26.5884C113.882 26.4961 113.653 26.1196 113.758 25.7782C113.88 25.381 113.749 24.9458 113.339 24.7794C112.959 24.6251 112.49 24.8095 112.34 25.1983C112.212 25.53 111.897 25.7593 111.53 25.6583C111.194 25.566 110.965 25.1894 111.07 24.8481C111.228 24.3355 110.904 23.7478 110.314 23.7983C109.979 23.8269 109.735 24.0689 109.617 24.3688C109.414 24.8867 109.252 25.4253 109.07 25.951C108.432 27.7953 107.794 29.6395 107.155 31.4838C106.988 31.9673 106.821 32.4509 106.653 32.9345C106.479 33.4387 105.95 33.536 105.552 33.2252C105.319 33.0427 105.086 32.8602 104.853 32.6778C104.722 32.5755 104.592 32.4721 104.46 32.3709C104.434 32.3508 104.409 32.3288 104.382 32.3097C104.533 32.4164 104.227 32.2214 104.194 32.2067C103.396 31.8447 102.431 32.5266 102.552 33.4356C102.63 34.0229 103.252 34.5253 103.622 34.9422C104.016 35.3869 104.426 35.8217 104.806 36.2786C105.101 36.6329 104.967 36.9577 104.864 37.3341C104.735 37.8043 104.608 38.2749 104.481 38.7457C104.029 40.421 103.587 42.0988 103.153 43.7788C102.028 48.1317 100.931 52.5 100.054 56.9104C98.8696 62.8677 97.5465 68.8002 96.4524 74.7751C95.3421 80.8382 94.4985 86.9877 94.585 93.1647C94.5954 93.9084 94.6206 94.6517 94.6591 95.3944C94.7031 96.2417 93.3855 96.2394 93.3416 95.3945Z" fill="black"/>
<path d="M132.325 28.5086C132.427 30.1343 132.528 31.76 132.629 33.3857L132.673 34.0877C132.695 34.4432 132.354 34.7465 132.014 34.7465C131.639 34.7465 131.378 34.4443 131.355 34.0877C131.254 32.4621 131.153 30.8364 131.052 29.2107C131.037 28.9767 131.023 28.7427 131.008 28.5086C130.986 28.1532 131.327 27.8499 131.667 27.8499C132.042 27.8499 132.303 28.1521 132.325 28.5086Z" fill="black"/>
<path d="M129.417 28.7071C129.518 30.3328 129.62 31.9585 129.721 33.5841C129.736 33.8182 129.75 34.0522 129.765 34.2862C129.787 34.6417 129.446 34.9449 129.106 34.9449C128.731 34.9449 128.469 34.6427 128.447 34.2862C128.346 32.6605 128.245 31.0349 128.143 29.4092C128.129 29.1752 128.114 28.9411 128.1 28.7071C128.078 28.3517 128.418 28.0484 128.759 28.0484C129.134 28.0484 129.395 28.3506 129.417 28.7071Z" fill="black"/>
<path d="M126.509 28.9056C126.61 30.5312 126.712 32.1569 126.813 33.7826L126.856 34.4847C126.879 34.8401 126.538 35.1434 126.198 35.1434C125.823 35.1434 125.561 34.8412 125.539 34.4847C125.438 32.859 125.337 31.2333 125.235 29.6076C125.221 29.3736 125.206 29.1396 125.192 28.9056C125.169 28.5501 125.51 28.2468 125.85 28.2468C126.225 28.2468 126.487 28.5491 126.509 28.9056Z" fill="black"/>
<path d="M129.833 39.2916C128.114 38.5025 126.139 38.2924 124.291 38.6825C123.943 38.7559 123.579 38.5801 123.48 38.2224C123.39 37.895 123.591 37.4859 123.94 37.4121C126.16 36.9434 128.438 37.2083 130.498 38.154C130.821 38.3025 130.901 38.7698 130.734 39.0553C130.54 39.3872 130.157 39.4406 129.833 39.2916Z" fill="black"/>
<path d="M110.361 59.8163C108.229 60.098 108.678 62.888 108.028 64.2962C107.942 63.999 107.948 63.6954 107.887 63.3888C107.823 63.0687 107.563 62.7304 107.241 62.7861C106.906 62.8441 106.788 63.256 106.742 63.5925C106.115 68.1916 106.185 72.8852 106.951 77.4633C107.484 76.771 107.921 75.8896 108.516 75.2601C108.637 75.1326 109.8 74.1938 109.778 74.1781C108.542 73.2715 108.09 71.4428 108.762 70.0648C109.005 69.5657 109.42 69.1038 109.967 69.0054C110.705 68.8725 111.388 69.4334 111.827 70.0409C112.386 70.8142 112.747 71.729 112.868 72.6754C113.031 71.6743 112.812 70.2579 113.483 69.4468C114.249 68.5213 115.495 68.4689 116.605 68.4642C118.322 68.4569 120.04 68.4497 121.758 68.4424C122.338 66.5778 122.473 64.3177 121.982 62.4081C121.76 61.5406 121.241 60.7057 120.436 60.3145C120.145 60.1736 119.807 60.0944 119.498 60.1893C119.331 60.2408 119.182 60.341 119.053 60.4602C118.594 60.8871 118.405 61.5834 118.586 62.1839C118.626 62.3173 118.722 62.4698 118.86 62.4512C118.918 62.4434 118.967 62.4055 119.009 62.3653C119.538 61.8588 119.32 60.9512 118.886 60.3613C118.101 59.2929 116.008 57.8951 114.62 58.2867C114.02 58.4557 113.554 58.9493 113.279 59.5076C113.003 60.066 112.892 60.6892 112.795 61.3043C112.189 60.5111 111.351 59.6858 110.361 59.8163Z" fill="black"/>
<path d="M110.536 60.4515C110.41 60.4702 110.289 60.4989 110.166 60.533C110.127 60.544 110.03 60.5847 110.117 60.5461C110.061 60.5706 110.009 60.6005 109.956 60.6304C109.943 60.6381 109.812 60.7261 109.878 60.6777C109.94 60.6319 109.811 60.7365 109.811 60.7365C109.777 60.7696 109.745 60.8048 109.711 60.8383C109.674 60.8748 109.631 60.9347 109.687 60.86C109.623 60.9451 109.568 61.0375 109.518 61.1313C109.494 61.1749 109.473 61.2194 109.451 61.264C109.368 61.4387 109.492 61.146 109.424 61.3301C109.347 61.5376 109.286 61.7498 109.236 61.9651C109.026 62.8591 108.976 63.7813 108.597 64.6287C108.36 65.1579 107.524 64.9857 107.393 64.4713C107.329 64.2192 107.309 63.9625 107.275 63.7055C107.266 63.6397 107.231 63.5436 107.235 63.4842C107.245 63.3576 107.122 63.4484 107.32 63.4389C107.354 63.4373 107.476 63.3523 107.487 63.3543C107.464 63.3502 107.437 63.4713 107.428 63.5079C107.378 63.7053 107.358 63.9087 107.333 64.1103C107.199 65.185 107.103 66.2644 107.044 67.3459C106.93 69.4702 106.962 71.6024 107.14 73.7223C107.241 74.9168 107.39 76.1057 107.586 77.2882L106.382 77.1308C106.974 76.3496 107.4 75.3814 108.134 74.7174C108.351 74.5212 108.581 74.3392 108.806 74.152C108.969 74.0157 109.178 73.8828 109.312 73.7154L109.142 74.0061L109.143 74.003C109.244 74.2509 109.345 74.4989 109.446 74.7469C108.105 73.7348 107.451 71.9381 107.961 70.3074C108.222 69.473 108.812 68.6132 109.707 68.3886C110.687 68.1424 111.616 68.716 112.208 69.4619C112.9 70.3356 113.352 71.3954 113.503 72.5002H112.232C112.282 72.1769 112.284 71.6514 112.308 71.2523C112.336 70.7742 112.379 70.2766 112.542 69.8228C112.897 68.8302 113.772 68.1935 114.782 67.9652C115.83 67.728 116.944 67.804 118.01 67.7995C119.259 67.7942 120.509 67.7889 121.758 67.7836L121.123 68.2672C121.676 66.4566 121.833 64.428 121.347 62.5832C121.168 61.9009 120.772 61.1535 120.081 60.8734C119.75 60.7392 119.531 60.8421 119.341 61.1384C119.26 61.2655 119.204 61.4152 119.183 61.5649C119.172 61.6486 119.169 61.7517 119.18 61.8349C119.19 61.8936 119.204 61.9516 119.221 62.0087C119.207 61.9559 119.176 61.9124 119.127 61.8782C119.017 61.8483 118.906 61.8183 118.795 61.7883L118.766 61.7851L118.475 61.9545C118.605 61.8495 118.646 61.7713 118.658 61.6739C118.679 61.4953 118.649 61.3762 118.593 61.2055C118.482 60.8617 118.336 60.6982 118.113 60.4616C117.588 59.9033 116.932 59.438 116.225 59.136C116.081 59.0746 115.917 59.0189 115.76 58.975C115.601 58.9301 115.426 58.8937 115.326 58.8857C114.988 58.8587 114.72 58.8781 114.399 59.123C113.695 59.6602 113.56 60.6676 113.431 61.4793C113.391 61.7293 113.114 61.9237 112.883 61.9512C112.597 61.9852 112.396 61.8561 112.227 61.6367C111.771 61.0471 111.156 60.3928 110.361 60.475C110.007 60.5117 109.703 60.146 109.703 59.8163C109.703 59.4296 110.006 59.1943 110.361 59.1575C111.655 59.0237 112.642 60.037 113.364 60.9717L112.16 61.1291C112.318 60.1369 112.558 59.1335 113.268 58.3801C113.932 57.6755 114.835 57.4616 115.765 57.6256C116.582 57.7698 117.371 58.1844 118.038 58.6678C118.674 59.1289 119.348 59.6969 119.688 60.4229C119.883 60.8367 120.013 61.2904 119.967 61.7517C119.916 62.2653 119.643 62.8778 119.116 63.0556C118.516 63.2577 118.036 62.7879 117.918 62.2288C117.81 61.7121 117.869 61.194 118.083 60.7127C118.274 60.2834 118.616 59.8765 119.044 59.6686C119.579 59.409 120.149 59.4665 120.68 59.7054C121.56 60.1014 122.147 60.9241 122.482 61.8038C122.879 62.8487 122.962 64.0704 122.939 65.1784C122.914 66.3395 122.733 67.5067 122.393 68.6174C122.308 68.8965 122.054 69.0998 121.758 69.101C120.587 69.106 119.416 69.111 118.244 69.1159C117.307 69.1199 116.312 69.0436 115.388 69.1862C114.659 69.2985 113.965 69.6322 113.762 70.3277C113.527 71.1302 113.63 72.0166 113.503 72.8504C113.408 73.4751 112.319 73.484 112.233 72.8504C112.11 71.9554 111.798 71.0799 111.247 70.356C111.027 70.0673 110.703 69.7352 110.332 69.6608C110.019 69.598 109.758 69.7672 109.565 70.0103C108.735 71.053 109.069 72.8228 110.111 73.6093C110.356 73.7946 110.486 74.0417 110.414 74.3532C110.351 74.6211 110.072 74.8033 109.875 74.9688C109.63 75.1738 109.383 75.3755 109.141 75.5836C108.449 76.1788 108.064 77.0763 107.519 77.7957C107.357 78.0108 107.149 78.1531 106.863 78.1102C106.627 78.0748 106.358 77.8949 106.315 77.6384C105.901 75.1374 105.673 72.6071 105.661 70.0716C105.654 68.8339 105.697 67.5958 105.79 66.3616C105.837 65.7445 105.896 65.1283 105.967 64.5135C106.032 63.9493 106.034 63.3014 106.299 62.786C106.605 62.189 107.313 61.9329 107.902 62.3003C108.57 62.717 108.495 63.4552 108.664 64.1211L107.46 63.9637C107.395 64.1079 107.468 63.9421 107.475 63.9208C107.494 63.8675 107.512 63.8146 107.529 63.7607C107.561 63.6577 107.589 63.5533 107.614 63.4484C107.67 63.2141 107.713 62.9768 107.754 62.7394C107.838 62.2591 107.91 61.7742 108.046 61.3053C108.353 60.2485 109.038 59.3503 110.186 59.1811C110.538 59.1293 110.894 59.2686 110.997 59.6412C111.082 59.9514 110.891 60.3993 110.536 60.4515Z" fill="black"/>
<path d="M56.8726 78.3173C56.8726 78.3173 52.6259 80.8396 49.112 78.9959C49.6734 80.7516 51.97 82.3068 51.97 82.3068C51.97 82.3068 52.5433 80.1779 53.7761 79.9986C55.009 79.8194 56.8726 78.3173 56.8726 78.3173Z" fill="black"/>
<path d="M57.2051 78.886C56.3495 79.3921 55.3705 79.7541 54.4122 80.0023C52.5326 80.4892 50.5329 80.4656 48.7795 79.5647L49.7472 78.8208C50.0047 79.5923 50.6227 80.2864 51.2438 80.8688C51.4986 81.1077 51.7652 81.3335 52.0402 81.5488C51.9244 81.4582 52.045 81.5518 52.0922 81.5868C52.1297 81.6146 52.1682 81.6412 52.2053 81.6696C52.2367 81.6936 52.2698 81.7158 52.3025 81.738C51.9799 81.8692 51.6574 82.0004 51.3348 82.1317C51.6227 81.0746 52.2648 79.7933 53.3706 79.4214C53.6873 79.3149 54.0157 79.2821 54.3273 79.1489C54.6028 79.0312 55.0178 78.7956 55.3282 78.6017C55.6083 78.4268 55.8813 78.2406 56.148 78.046C56.2404 77.9785 56.3308 77.9083 56.4227 77.8403C56.2406 77.9751 56.3638 77.886 56.4068 77.8514C56.6838 77.6288 57.0676 77.5807 57.3384 77.8514C57.5689 78.082 57.6171 78.559 57.3384 78.783C56.9674 79.0811 56.5796 79.3605 56.1806 79.6198C55.5434 80.0339 54.829 80.4567 54.0766 80.6116C53.9959 80.6282 53.9145 80.6393 53.834 80.6571C53.7964 80.6654 53.6639 80.7172 53.7692 80.6705C53.6968 80.7026 53.6286 80.745 53.5632 80.7892C53.5014 80.8333 53.4979 80.8358 53.5526 80.7967C53.5215 80.8233 53.4912 80.8507 53.4617 80.8791C53.2328 81.0988 53.1525 81.2301 52.9796 81.5524C52.9152 81.6723 52.8593 81.7956 52.8015 81.9188C52.751 82.0266 52.8331 81.8289 52.7692 81.9994C52.7485 82.0549 52.727 82.11 52.7071 82.1658C52.67 82.2699 52.6343 82.3751 52.6053 82.4819C52.4996 82.8699 51.9931 83.1172 51.6376 82.8755C50.3197 81.9795 48.9908 80.7114 48.4768 79.171C48.2839 78.5929 48.9645 78.1804 49.4445 78.4271C50.9357 79.1933 52.6534 79.1189 54.2072 78.6932C54.5423 78.6014 54.873 78.4936 55.1984 78.3717C55.3306 78.3222 55.4618 78.2703 55.5921 78.2163C55.4491 78.2755 55.66 78.1864 55.6849 78.1754C55.7451 78.1487 55.8051 78.1215 55.8649 78.0938C56.0938 77.9877 56.3227 77.877 56.5401 77.7485C57.2715 77.3159 57.9351 78.4543 57.2051 78.886Z" fill="black"/>
<path d="M53.6283 27.1054C53.1072 28.7107 52.5861 30.316 52.0649 31.9213L51.8406 32.6123C51.7308 32.9506 51.3844 33.1697 51.0303 33.0724C50.6984 32.9811 50.4599 32.6018 50.5702 32.262C51.0914 30.6567 51.6125 29.0514 52.1336 27.4461C52.2084 27.2158 52.2832 26.9855 52.3579 26.7552C52.4678 26.4169 52.8141 26.1978 53.1683 26.2951C53.5002 26.3863 53.7387 26.7656 53.6283 27.1054Z" fill="black"/>
<path d="M50.8558 26.2053C50.3346 27.8107 49.8135 29.416 49.2924 31.0212C49.2176 31.2516 49.1428 31.4819 49.0681 31.7122C48.9582 32.0505 48.6119 32.2696 48.2577 32.1723C47.9258 32.0811 47.6873 31.7017 47.7977 31.362C48.3188 29.7567 48.8399 28.1513 49.3611 26.5461C49.4359 26.3157 49.5106 26.0854 49.5854 25.8551C49.6952 25.5168 50.0416 25.2977 50.3957 25.395C50.7276 25.4862 50.9661 25.8656 50.8558 26.2053Z" fill="black"/>
<path d="M48.0833 25.3052C47.5621 26.9105 47.041 28.5159 46.5198 30.1211C46.4451 30.3515 46.3703 30.5818 46.2955 30.8121C46.1857 31.1504 45.8394 31.3695 45.4852 31.2722C45.1533 31.181 44.9148 30.8016 45.0252 30.4618C45.5463 28.8565 46.0674 27.2512 46.5886 25.646C46.6633 25.4156 46.7381 25.1853 46.8129 24.955C46.9227 24.6167 47.2691 24.3976 47.6232 24.4949C47.9551 24.5861 48.1936 24.9655 48.0833 25.3052Z" fill="black"/>
<path d="M29.2254 95.3945C28.9698 90.4703 29.3673 85.5422 30.0477 80.6661C30.74 75.7054 31.7421 70.7948 32.7653 65.8937C33.6468 61.6716 34.4348 57.4266 35.379 53.2181C36.1731 49.6784 37.0553 46.1585 37.9683 42.6478C38.3133 41.321 38.6638 39.9957 39.0198 38.6718C39.1984 38.0076 39.343 37.3182 39.5643 36.6666C39.5749 36.6355 39.5819 36.6027 39.5907 36.571L39.7601 37.212C39.0835 36.4487 38.3832 35.7013 37.7294 34.9186C36.9101 33.9375 36.9164 32.493 37.8077 31.5549C38.5601 30.7631 39.7857 30.5829 40.7491 31.0749C41.3327 31.373 41.8538 31.8917 42.3677 32.2937L41.2668 32.5844C41.7797 31.102 42.2927 29.6196 42.8056 28.1373C43.1518 27.1367 43.4981 26.1361 43.8443 25.1355C44.0236 24.6173 44.1611 24.0082 44.4432 23.532C44.9853 22.6169 46.1398 22.234 47.1101 22.6706C48.068 23.1017 48.5304 24.2048 48.2241 25.1983C47.8006 25.0815 47.3771 24.9648 46.9537 24.8481C47.3595 23.7963 48.4542 23.1418 49.573 23.5091C50.6597 23.8657 51.2452 25.0437 50.912 26.1284C50.4886 26.0117 50.0651 25.8949 49.6416 25.7782C50.0475 24.7265 51.1422 24.072 52.261 24.4392C53.3477 24.7958 53.9332 25.9738 53.6 27.0586C53.1766 26.9418 52.7531 26.8251 52.3296 26.7083C52.7057 25.7306 53.6319 25.1222 54.6909 25.306C55.676 25.477 56.3916 26.4001 56.3782 27.3892C56.3704 27.971 56.0882 28.5663 55.9009 29.1075C55.1367 31.3161 54.3724 33.5246 53.6082 35.7331C53.1498 37.0577 52.662 38.376 52.2332 39.7106C51.6105 41.6486 51.0865 43.6253 50.5711 45.5937C49.7208 48.8404 48.9009 52.1545 48.4961 55.4804C48.4519 55.8435 48.4141 56.2073 48.3837 56.5718C48.3541 56.9264 48.1021 57.2306 47.725 57.2306C47.3915 57.2306 47.0365 56.9284 47.0663 56.5718C47.3346 53.355 48.0665 50.1711 48.8414 47.0443C49.4373 44.6402 50.0936 42.2499 50.8059 39.8777C51.0891 38.9347 51.4288 38.0097 51.7507 37.0794C52.5198 34.8571 53.2888 32.6347 54.0578 30.4123C54.3264 29.6362 54.595 28.86 54.8635 28.0838C54.9092 27.952 54.9584 27.8208 55.0006 27.6878C55.1672 27.1623 54.8627 26.5148 54.233 26.5867C53.9593 26.6179 53.7011 26.7958 53.6 27.0586C53.4724 27.3904 53.1569 27.6195 52.7897 27.5186C52.4535 27.4262 52.2248 27.0497 52.3296 26.7083C52.4516 26.3111 52.3207 25.876 51.9108 25.7095C51.5308 25.5552 51.0621 25.7397 50.912 26.1284C50.784 26.4601 50.4692 26.6894 50.1017 26.5884C49.7655 26.4961 49.5368 26.1196 49.6416 25.7782C49.7636 25.381 49.6327 24.9458 49.2228 24.7794C48.8428 24.6251 48.3741 24.8095 48.2241 25.1983C48.096 25.53 47.7812 25.7593 47.4137 25.6583C47.0778 25.566 46.8484 25.1894 46.9537 24.8481C47.1117 24.3355 46.7882 23.7478 46.1976 23.7983C45.8626 23.8269 45.6191 24.0689 45.5012 24.3688C45.2976 24.8867 45.1357 25.4253 44.9537 25.951C44.3156 27.7953 43.6774 29.6395 43.0392 31.4838C42.8719 31.9673 42.7045 32.4509 42.5372 32.9345C42.3627 33.4387 41.8336 33.536 41.4362 33.2252C41.2029 33.0427 40.9697 32.8602 40.7364 32.6778C40.6056 32.5755 40.4757 32.4721 40.3441 32.3709C40.3179 32.3508 40.2928 32.3288 40.2659 32.3097C40.4166 32.4164 40.1105 32.2214 40.078 32.2067C39.2801 31.8447 38.3147 32.5266 38.4358 33.4356C38.5141 34.0229 39.136 34.5253 39.5056 34.9422C39.8998 35.3869 40.3102 35.8217 40.6902 36.2786C40.9849 36.6329 40.8507 36.9577 40.7477 37.3341C40.6191 37.8043 40.4915 38.2749 40.3646 38.7457C39.913 40.421 39.4703 42.0988 39.0364 43.7788C37.9122 48.1317 36.8148 52.5 35.9379 56.9104C34.7533 62.8677 33.4303 68.8002 32.3361 74.7751C31.2258 80.8382 30.3823 86.9877 30.4687 93.1647C30.4791 93.9084 30.5043 94.6517 30.5429 95.3944C30.5868 96.2417 29.2692 96.2394 29.2254 95.3945Z" fill="black"/>
<path d="M68.2093 28.5086C68.3105 30.1343 68.4117 31.76 68.513 33.3857C68.5275 33.6197 68.5421 33.8537 68.5567 34.0877C68.5788 34.4432 68.2381 34.7465 67.8979 34.7465C67.5229 34.7465 67.2614 34.4443 67.2392 34.0877C67.138 32.4621 67.0367 30.8364 66.9355 29.2107C66.9209 28.9767 66.9064 28.7427 66.8918 28.5086C66.8697 28.1532 67.2104 27.8499 67.5505 27.8499C67.9255 27.8499 68.187 28.1521 68.2093 28.5086Z" fill="black"/>
<path d="M65.3011 28.7071C65.4023 30.3328 65.5035 31.9585 65.6048 33.5841C65.6193 33.8182 65.6339 34.0522 65.6485 34.2862C65.6706 34.6417 65.3299 34.9449 64.9898 34.9449C64.6147 34.9449 64.3532 34.6427 64.331 34.2862C64.2298 32.6605 64.1285 31.0349 64.0273 29.4092L63.9836 28.7071C63.9614 28.3517 64.3022 28.0484 64.6423 28.0484C65.0173 28.0484 65.2788 28.3506 65.3011 28.7071Z" fill="black"/>
<path d="M62.3928 28.9056C62.4941 30.5312 62.5953 32.1569 62.6966 33.7826C62.7111 34.0166 62.7257 34.2507 62.7403 34.4847C62.7624 34.8401 62.4217 35.1434 62.0815 35.1434C61.7065 35.1434 61.445 34.8412 61.4228 34.4847C61.3216 32.859 61.2203 31.2333 61.1191 29.6076C61.1045 29.3736 61.09 29.1396 61.0754 28.9056C61.0532 28.5501 61.394 28.2468 61.7341 28.2468C62.1091 28.2468 62.3706 28.5491 62.3928 28.9056Z" fill="black"/>
<path d="M65.7168 39.2916C63.9983 38.5025 62.0225 38.2924 60.1746 38.6825C59.8268 38.7559 59.4626 38.5801 59.3643 38.2224C59.2743 37.895 59.4747 37.4859 59.8243 37.4121C62.0441 36.9434 64.3222 37.2083 66.3817 38.154C66.705 38.3025 66.785 38.7698 66.618 39.0553C66.4238 39.3872 66.0413 39.4406 65.7168 39.2916Z" fill="black"/>
<path d="M46.7952 61.8627C44.9008 62.3683 43.1568 63.5757 42.3561 65.351C41.8139 66.5531 41.7349 67.9085 41.7384 69.2272C41.7425 70.7869 41.8503 72.3464 42.0609 73.8918C42.1449 74.5082 42.6932 77.8516 43.6981 77.2563C43.9987 77.0782 44.129 76.1228 44.267 75.8182C44.5909 75.1032 45.0546 74.6954 45.6552 74.2008C44.5175 73.1595 43.9244 71.5444 44.6459 70.0647C44.8892 69.5657 45.3043 69.1038 45.8507 69.0053C46.5883 68.8724 47.2721 69.4333 47.711 70.0409C48.2681 70.8117 48.5964 71.6966 48.7524 72.6296C48.9895 71.1965 48.6349 70.2157 50.3728 70.3287C51.7834 70.4205 53.2066 70.3967 53.8593 68.889C54.0878 69.5948 54.9313 69.7999 55.5933 69.6814C56.5252 69.5147 57.3696 68.9126 57.831 68.086C58.2924 67.2593 58.3616 66.2245 58.0143 65.3438C57.3817 63.7394 55.6156 62.9243 53.9693 62.4105C51.8801 61.7586 49.6607 61.3368 47.5037 61.7075C47.2662 61.7483 47.0296 61.8001 46.7952 61.8627Z" fill="black"/>
<path d="M46.9703 62.4979C45.5608 62.8826 44.1872 63.6702 43.3585 64.9049C42.357 66.3973 42.3654 68.2575 42.4074 69.9875C42.4435 71.4772 42.537 72.99 42.8203 74.4558C42.917 74.9562 43.0335 75.4555 43.1977 75.9385C43.2167 75.9942 43.2363 76.0497 43.2568 76.1049C43.2659 76.1292 43.3234 76.2758 43.2967 76.2115C43.2693 76.1452 43.3398 76.306 43.3521 76.3313C43.3781 76.3847 43.4052 76.4375 43.4345 76.4891C43.4579 76.5304 43.4858 76.5696 43.5085 76.6112C43.5687 76.7208 43.4925 76.6022 43.5092 76.6185C43.5402 76.6487 43.5794 76.6841 43.6046 76.7185C43.6608 76.7954 43.4912 76.6461 43.6004 76.7072C43.6602 76.7407 43.5086 76.6703 43.5178 76.6727C43.6051 76.6961 43.4466 76.6669 43.4353 76.6673C43.5358 76.6637 43.2649 76.7008 43.4052 76.6735C43.4389 76.667 43.253 76.7318 43.2777 76.7639C43.2722 76.7568 43.258 76.8207 43.2851 76.745C43.2981 76.7087 43.3228 76.6742 43.3386 76.6388C43.2986 76.7287 43.3673 76.5428 43.3771 76.512C43.4025 76.4323 43.4252 76.3517 43.4473 76.271C43.4904 76.1137 43.527 75.9541 43.576 75.7985C43.8486 74.9343 44.5105 74.2956 45.1894 73.735V74.6666C43.9236 73.4839 43.2687 71.6462 43.9635 69.9891C44.3159 69.1487 44.9879 68.4132 45.9426 68.3336C46.8879 68.2548 47.6917 68.9231 48.2237 69.6327C48.8398 70.4545 49.2123 71.448 49.3876 72.4545H48.1172C48.1906 71.9935 48.1699 71.2799 48.3565 70.746C48.59 70.0775 49.1378 69.7472 49.8222 69.6766C50.1812 69.6397 50.5415 69.6857 50.9008 69.6962C51.0741 69.7013 51.2476 69.7024 51.4209 69.6958C51.5857 69.6895 51.7608 69.6754 51.8613 69.658C52.5662 69.5364 52.9829 69.2382 53.2905 68.5565C53.3957 68.3233 53.714 68.207 53.9469 68.242C54.2191 68.2829 54.4016 68.4584 54.4945 68.7138C54.5347 68.8244 54.6454 68.9133 54.7504 68.9624C54.9252 69.044 55.1036 69.0594 55.3008 69.0531C55.683 69.0408 56.2257 68.8221 56.5988 68.5304C57.4848 67.8376 57.8111 66.6102 57.3964 65.5647C57.0158 64.6051 56.0976 63.9988 55.1971 63.5735C54.0714 63.0419 52.811 62.7169 51.5944 62.4764C50.0732 62.1757 48.4813 62.105 46.9703 62.4979C46.1492 62.7114 45.7989 61.4409 46.6201 61.2274C48.311 60.7878 50.0721 60.8549 51.7772 61.1739C53.2741 61.4539 54.8234 61.8802 56.1773 62.5929C57.3879 63.2301 58.4859 64.254 58.7922 65.6361C59.1374 67.1941 58.5192 68.7811 57.2211 69.6999C55.9915 70.5704 53.8411 70.7606 53.2241 69.0641L54.4281 69.2215C54.0885 69.9742 53.4902 70.5194 52.7153 70.798C52.0272 71.0455 51.2561 71.0384 50.5356 70.9975C50.3444 70.9866 50.1537 70.9719 49.962 70.9826C49.9332 70.9842 49.7415 71.016 49.8707 70.9897C49.8144 71.0012 49.7596 71.0209 49.7036 71.032C49.6317 71.0581 49.6369 71.0554 49.7191 71.0239C49.691 71.0381 49.6638 71.0539 49.6376 71.0713C49.6267 71.0275 49.7652 71.0121 49.6357 71.083C49.5185 71.1471 49.7321 71.0147 49.6361 71.0896C49.6212 71.1154 49.6076 71.1417 49.5953 71.1687C49.6312 71.0811 49.6367 71.0718 49.6116 71.1409C49.5958 71.2396 49.5611 71.3378 49.543 71.4371C49.5317 71.5122 49.5318 71.509 49.5433 71.4275C49.5387 71.4663 49.5343 71.5051 49.5304 71.5439C49.5245 71.605 49.5185 71.6661 49.5129 71.7273C49.4803 72.0879 49.4447 72.447 49.3877 72.8048C49.2869 73.4379 48.2261 73.4294 48.1173 72.8048C47.9663 71.9382 47.6798 71.0815 47.1423 70.3733C46.7859 69.9037 46.1499 69.3556 45.6008 69.851C45.0902 70.3117 44.9188 71.1153 45.0107 71.7731C45.1182 72.5431 45.5635 73.2141 46.121 73.735C46.3634 73.9615 46.3895 74.4449 46.121 74.6666C45.7918 74.9384 45.446 75.2153 45.1832 75.5551C44.9559 75.849 44.8763 76.0277 44.789 76.353C44.617 76.9939 44.4398 77.7908 43.6903 77.9582C42.3991 78.2466 41.913 76.3737 41.6941 75.4714C41.3389 74.0069 41.2068 72.4816 41.128 70.9811C41.0193 68.9095 40.9323 66.6271 41.9249 64.7368C42.8683 62.9404 44.7006 61.7514 46.6201 61.2274C47.4392 61.0039 47.7886 62.2746 46.9703 62.4979Z" fill="black"/>
<path d="M173.349 68.045C172.659 69.6001 172.297 71.2994 172.291 73.0006C172.29 73.2192 172.282 73.4685 172.116 73.6102C172.097 72.8718 172.033 72.1158 171.721 71.4461C171.41 70.7765 170.805 70.202 170.073 70.1098C169.232 70.0041 168.414 70.5603 167.983 71.2893C167.274 72.4892 167.514 74.1681 168.531 75.121C168.229 75.7125 167.726 76.2951 167.122 76.5805C167.221 75.0127 166.177 73.5522 166.425 71.9308C166.635 70.558 167.188 68.9639 167.764 67.7136" fill="black"/>
<path d="M173.918 68.3775C173.518 69.2891 173.246 70.2613 173.086 71.2428C173.01 71.7138 172.97 72.1909 172.955 72.6678C172.94 73.1847 172.965 73.6747 172.582 74.0759C172.175 74.5011 171.473 74.165 171.457 73.6102C171.434 72.8029 171.378 71.8778 170.813 71.2437C170.325 70.6969 169.64 70.6115 169.048 71.0585C167.899 71.9268 168.032 73.7232 168.997 74.6552C169.214 74.8648 169.235 75.1968 169.1 75.4535C168.731 76.1536 168.17 76.7927 167.455 77.1493C167.034 77.359 166.438 77.111 166.463 76.5805C166.537 75.0549 165.607 73.6714 165.742 72.1285C165.886 70.494 166.519 68.8607 167.196 67.3811C167.344 67.0576 167.812 66.978 168.097 67.1448C168.429 67.3392 168.482 67.7213 168.333 68.0461C168.02 68.7308 167.752 69.4358 167.528 70.1545C167.312 70.8456 167.073 71.5964 167.048 72.3248C167.024 73.0151 167.232 73.6779 167.42 74.3342C167.628 75.065 167.818 75.8143 167.781 76.5805L166.79 76.0117C167.321 75.7469 167.689 75.3075 167.962 74.7886C167.997 75.0546 168.031 75.3208 168.065 75.5868C166.865 74.428 166.568 72.4933 167.373 71.0294C167.795 70.2629 168.575 69.62 169.451 69.4785C170.378 69.329 171.275 69.7252 171.86 70.4487C172.587 71.3481 172.742 72.4879 172.775 73.6102C172.4 73.4549 172.025 73.2996 171.65 73.1444C171.621 73.1745 171.634 73.1733 171.63 73.1259C171.62 73.0134 171.633 72.8916 171.635 72.7787C171.64 72.5568 171.651 72.3351 171.667 72.1139C171.707 71.5949 171.776 71.0761 171.873 70.5648C172.061 69.578 172.378 68.6315 172.78 67.7125C172.923 67.3866 173.4 67.3114 173.681 67.4762C174.018 67.6729 174.061 68.0503 173.918 68.3775Z" fill="black"/>
<path d="M43.4951 67.0013C44.1211 65.8113 43.531 64.2121 42.3828 63.5125C41.2346 62.8128 39.7089 62.9319 38.5358 63.5889C37.6057 64.11 36.6516 64.9743 35.6336 64.6576C34.5226 64.3119 34.2993 62.8762 33.6973 61.8805C32.9031 60.5668 31.2183 59.9413 29.7026 60.1847C28.1868 60.4281 26.8633 61.4318 25.9898 62.6943C24.7658 64.4634 24.4479 67.0813 25.9025 68.6661C26.266 69.0621 26.8541 69.3841 27.3228 69.1212C27.9878 68.7483 27.6754 67.6981 27.1272 67.1682C25.5753 65.6682 22.8712 65.7327 21.2174 67.1195C19.5636 68.5064 18.9896 70.946 19.5869 73.0201C20.1842 75.0941 21.8212 76.7778 23.7648 77.7164C25.6233 78.6139 27.8532 78.8695 29.7657 78.0935C31.1745 77.5219 32.4548 76.0288 31.9531 74.5936C31.8035 74.1658 31.3829 73.7513 30.9501 73.8859C30.8084 73.9299 30.6898 74.0272 30.5832 74.1303C29.3102 75.3618 29.4919 77.6476 30.7448 78.8995C31.9977 80.1513 34.0184 80.4161 35.699 79.8572C37.3796 79.2983 38.7471 78.0326 39.7841 76.5967C40.8211 75.1609 41.5717 73.5433 42.3942 71.9748" fill="black"/>
<path d="M42.9263 66.6688C43.3751 65.7752 42.8776 64.5502 41.9696 64.0338C41.4189 63.7205 40.7512 63.6383 40.1293 63.7286C39.4403 63.8286 38.8692 64.1436 38.2904 64.5099C37.6474 64.9168 36.9873 65.3176 36.2107 65.3785C35.5306 65.4319 34.8497 65.1157 34.41 64.6037C33.627 63.692 33.5012 62.38 32.5817 61.5745C31.6906 60.7936 30.3906 60.6288 29.2969 60.9525C28.0725 61.3149 27.0262 62.2363 26.3706 63.3168C25.7504 64.339 25.4199 65.639 25.6746 66.7958C25.7989 67.3606 26.0486 67.9391 26.4974 68.3289C26.5911 68.4104 26.7033 68.4982 26.8225 68.5367C26.837 68.5413 27.0038 68.5571 26.9875 68.5528C26.916 68.5336 27.1317 68.5525 27.0189 68.5337L26.997 68.569C27.0339 68.5007 27.0398 68.4971 27.0147 68.5582C27.0263 68.5172 27.0405 68.4769 27.0474 68.4347C27.021 68.5958 27.028 68.2425 27.0448 68.3788C26.9223 67.3869 25.5493 66.8161 24.6235 66.7372C23.4583 66.6378 22.2764 66.9884 21.4245 67.8193C20.5561 68.6664 20.0823 69.868 20.0233 71.0668C19.9602 72.348 20.3524 73.5615 21.0725 74.6185C22.5889 76.8443 25.547 78.246 28.232 77.8344C29.4428 77.6488 30.835 77.0398 31.2964 75.8105C31.3872 75.5685 31.4292 75.3217 31.4028 75.1006C31.3875 74.9724 31.2884 74.5016 31.0857 74.5068C31.1772 74.5044 31.0594 74.5843 31.049 74.5962C30.9844 74.67 30.878 74.7738 30.8406 74.8233C30.6533 75.0714 30.5499 75.3023 30.4715 75.5814C30.1871 76.5944 30.5037 77.7777 31.3062 78.5256C32.1852 79.3447 33.4979 79.6024 34.6604 79.4321C37.6179 78.9989 39.4452 76.1842 40.7287 73.7638C41.1016 73.0605 41.4565 72.3477 41.8255 71.6423C42.2188 70.8908 43.3562 71.5561 42.9631 72.3073C41.3303 75.4282 39.7216 78.9655 36.2295 80.362C34.7269 80.9629 32.983 80.9434 31.5181 80.2435C30.074 79.5534 29.155 78.1367 29.0605 76.5474C29.0165 75.8064 29.1816 75.0335 29.5543 74.3891C29.9959 73.6253 30.7924 72.9038 31.7138 73.3523C32.5195 73.7446 32.8037 74.7638 32.6949 75.5905C32.5873 76.408 32.1384 77.143 31.547 77.7063C30.2758 78.9172 28.4057 79.3301 26.6945 79.1873C24.9606 79.0425 23.2817 78.3951 21.8994 77.3382C20.5951 76.3411 19.556 75.0199 19.0318 73.4525C18.5201 71.9224 18.6082 70.2159 19.2401 68.7368C19.857 67.293 21.0258 66.1621 22.5241 65.6696C23.95 65.2008 25.6441 65.3342 26.9142 66.1647C27.5535 66.5829 28.1103 67.1581 28.2931 67.9226C28.4837 68.72 28.1718 69.6277 27.2966 69.8324C26.3523 70.0532 25.5424 69.3538 25.0423 68.634C24.5916 67.9853 24.3696 67.2105 24.2976 66.4311C23.9986 63.1941 26.6363 59.8702 29.8717 59.5026C31.4539 59.3228 33.1189 59.9859 34.0755 61.2676C34.4916 61.8251 34.7015 62.4943 35.0086 63.1113C35.1527 63.4008 35.2967 63.6385 35.4878 63.8276C35.5379 63.8772 35.6316 63.9519 35.7598 64.0077C35.8052 64.0275 36.036 64.075 36.1669 64.0646C36.9068 64.0062 37.5741 63.3692 38.2034 63.0202C38.9479 62.6073 39.8024 62.3716 40.656 62.3811C42.3321 62.3999 43.8662 63.4303 44.2963 65.0904C44.4936 65.8518 44.4166 66.6317 44.064 67.3338C43.9044 67.6516 43.4559 67.7415 43.1627 67.5701C42.8393 67.3809 42.7661 66.9878 42.9263 66.6688Z" fill="black"/>
<path d="M162.899 123.038C161.355 123.732 159.649 123.718 158.053 123.194C156.41 122.654 155.007 121.662 153.743 120.502C151.363 118.316 149.324 115.36 146.094 114.369C144.549 113.896 142.987 114.091 141.567 114.848C140.252 115.548 139.126 116.574 138.178 117.714C136.4 119.855 135.359 122.528 134.868 125.245C134.295 128.416 134.479 131.733 135.229 134.861C135.427 135.685 134.157 136.037 133.959 135.211C133.257 132.288 133.025 129.227 133.396 126.239C133.76 123.31 134.668 120.416 136.349 117.968C138.13 115.374 140.954 112.834 144.269 112.779C147.849 112.72 150.596 115.423 152.906 117.814C154.084 119.033 155.281 120.289 156.75 121.161C158.048 121.93 159.658 122.478 161.182 122.21C161.541 122.147 161.901 122.05 162.234 121.901C162.559 121.755 162.943 121.807 163.136 122.137C163.3 122.419 163.226 122.892 162.899 123.038Z" fill="black"/>
<path d="M6.81504 22.4598C7.74724 22.2693 8.66831 21.961 9.62666 21.931C10.6709 21.8984 11.6198 22.3066 12.3125 23.0889C12.5658 23.375 12.5508 23.731 12.3125 24.0205C10.7438 25.9261 7.99227 26.7624 5.59069 26.4804C5.23739 26.439 4.93195 26.2073 4.93195 25.8217C4.93195 25.4979 5.23499 25.1212 5.59069 25.163C7.68753 25.4091 10.0035 24.7621 11.3809 23.0889V24.0205C10.8398 23.4094 10.2389 23.2024 9.46128 23.2571C8.70498 23.3102 7.92687 23.5746 7.16527 23.7301C6.81703 23.8013 6.45366 23.6293 6.35494 23.2701C6.26547 22.9445 6.46484 22.5313 6.81504 22.4598Z" fill="white"/>
<path d="M175.091 155.471C171.612 156.258 167.987 155.913 164.707 154.525C164.379 154.386 164.308 153.903 164.471 153.624C164.669 153.284 165.043 153.248 165.372 153.387C168.306 154.629 171.639 154.903 174.741 154.2C175.566 154.013 175.919 155.283 175.091 155.471Z" fill="#FFA6C5"/>
<path d="M170.119 160.118C169.81 160.015 169.502 159.912 169.193 159.81C169.031 159.755 168.888 159.658 168.8 159.507C168.752 159.431 168.726 159.35 168.722 159.262C168.702 159.174 168.706 159.087 168.733 158.999C168.785 158.84 168.884 158.686 169.036 158.606C169.188 158.525 169.375 158.483 169.544 158.539C169.852 158.642 170.161 158.745 170.469 158.848C170.632 158.902 170.775 159 170.863 159.15C170.911 159.226 170.937 159.308 170.941 159.395C170.961 159.483 170.957 159.57 170.929 159.658C170.878 159.817 170.779 159.971 170.626 160.052C170.474 160.132 170.287 160.174 170.119 160.118Z" fill="#FFA6C5"/>
<path d="M92.5763 137.818C90.3118 139.399 86.9494 138.701 85.3561 136.503C84.8701 135.833 84.5205 134.918 84.8304 134.103C85.1069 133.375 85.9547 132.904 86.7174 133.144C87.5525 133.406 87.6719 134.384 87.3926 135.105C87.1035 135.852 86.4815 136.394 85.7496 136.69C83.8922 137.443 82.1397 136.042 80.8373 134.874C80.205 134.306 81.1392 133.377 81.7689 133.942C82.5656 134.657 83.5532 135.592 84.7004 135.585C85.0871 135.583 85.5277 135.403 85.8235 135.124C86.1513 134.815 86.2735 134.505 86.1666 134.142C86.2231 134.239 86.2796 134.336 86.336 134.433C86.2384 134.321 86.4438 134.429 86.3062 134.396C86.3611 134.409 86.3173 134.391 86.264 134.404C86.1665 134.428 86.0977 134.472 86.0645 134.549C85.927 134.867 86.1521 135.303 86.3245 135.585C86.6902 136.183 87.2219 136.62 87.8731 136.939C89.142 137.562 90.7193 137.512 91.9114 136.68C92.2032 136.476 92.6433 136.627 92.8126 136.916C93.0047 137.245 92.8689 137.613 92.5763 137.818Z" fill="#FFA6C5"/>
<path d="M7.79589 151.488C7.38464 150.871 6.97339 150.254 6.56214 149.637C6.37055 149.35 6.49662 148.895 6.79846 148.736C7.12976 148.561 7.49525 148.665 7.69971 148.972C8.11096 149.589 8.52221 150.206 8.93346 150.823C9.12505 151.11 8.99898 151.564 8.69714 151.724C8.36585 151.899 8.00036 151.794 7.79589 151.488Z" fill="#98CCFF"/>
<path d="M4.77775 158.021C3.34617 157.585 1.91463 157.148 0.483058 156.711C0.142847 156.607 -0.0731473 156.25 0.0229845 155.901C0.115521 155.564 0.491741 155.336 0.833318 155.44C2.26489 155.877 3.69643 156.314 5.128 156.751C5.46822 156.855 5.68421 157.212 5.58808 157.561C5.49554 157.898 5.11932 158.126 4.77775 158.021Z" fill="#98CCFF"/>
<path d="M14.8837 148.996C14.7809 149.921 14.6781 150.847 14.5753 151.772C14.5553 151.952 14.5151 152.105 14.3824 152.238C14.2681 152.352 14.0807 152.438 13.9166 152.431C13.5923 152.416 13.2171 152.139 13.2578 151.772C13.3607 150.847 13.4634 149.921 13.5663 148.996C13.5863 148.816 13.6264 148.663 13.7592 148.53C13.8734 148.416 14.0609 148.33 14.225 148.337C14.5493 148.352 14.9245 148.629 14.8837 148.996Z" fill="#98CCFF"/>
</svg>

