<?xml version="1.0" encoding="UTF-8"?>
<svg id="Layer_2" data-name="Layer 2" xmlns="http://www.w3.org/2000/svg" xmlns:xlink="http://www.w3.org/1999/xlink" viewBox="0 0 1528.25 333.4">
  <defs>
    <style>
      .cls-1 {
        fill: url(#radial-gradient-2);
      }

      .cls-2 {
        fill: #231f20;
      }

      .cls-3 {
        fill: url(#radial-gradient);
        opacity: .3;
      }
    </style>
    <radialGradient id="radial-gradient" cx="194.92" cy="57.08" fx="194.92" fy="57.08" r="49.12" gradientUnits="userSpaceOnUse">
      <stop offset="0" stop-color="#f37d86"/>
      <stop offset=".12" stop-color="#f37e87" stop-opacity=".98"/>
      <stop offset=".25" stop-color="#f3818b" stop-opacity=".93"/>
      <stop offset=".38" stop-color="#f38792" stop-opacity=".84"/>
      <stop offset=".51" stop-color="#f48f9c" stop-opacity=".72"/>
      <stop offset=".65" stop-color="#f599a9" stop-opacity=".57"/>
      <stop offset=".78" stop-color="#f6a6b9" stop-opacity=".38"/>
      <stop offset=".92" stop-color="#f7b5cb" stop-opacity=".16"/>
      <stop offset="1" stop-color="#f8c0d9" stop-opacity="0"/>
    </radialGradient>
    <radialGradient id="radial-gradient-2" cx="192.84" cy="55.14" fx="192.84" fy="55.14" r="25.3" gradientUnits="userSpaceOnUse">
      <stop offset="0" stop-color="#c6abd2"/>
      <stop offset=".29" stop-color="#c9acd2"/>
      <stop offset=".57" stop-color="#d5b1d4"/>
      <stop offset=".84" stop-color="#e8b9d6"/>
      <stop offset="1" stop-color="#f8c0d9"/>
    </radialGradient>
  </defs>
  <g id="Layer_1-2" data-name="Layer 1">
    <g>
      <line y1="164.71" x2=".13" y2="164.64"/>
      <g>
        <path d="M.13,201.67v-38.6c0-4.12,4.58-6.57,8.01-4.29l.36.24,36.2,24.15,59.29,39.54,15.57,10.39,72.68,48.46c1.73,1.15,3.99,1.15,5.72,0l72.68-48.46,15.08-10.05,59.29-39.54,36.7-24.48h0c3.43-2.28,8.01.17,8.01,4.29v38.61c0,1.72-.86,3.33-2.29,4.29l-40.32,26.88-149.15,99.45c-1.73,1.15-3.99,1.15-5.72,0L43.1,233.08,2.42,205.96c-1.43-.96-2.29-2.57-2.29-4.29Z"/>
        <path d="M44.7,152.44v-34.59c0-4.12,4.59-6.57,8.01-4.29l11.8,7.87,39.47,26.32,44.58,29.73,43.67,29.12c1.73,1.15,3.99,1.15,5.72,0l43.18-28.79,44.58-29.73,39.97-26.65,11.31-7.54c3.43-2.28,8.01.17,8.01,4.29v34.59c0,1.72-.86,3.33-2.29,4.29l-56.99,38.01-44.58,29.73-43.18,28.79c-1.73,1.15-3.99,1.15-5.72,0l-43.67-29.12-44.58-29.73-56.99-38.01c-1.43-.96-2.29-2.57-2.29-4.29Z"/>
        <path d="M103.99,117.06v-38.02c0-4.12,4.59-6.57,8.02-4.29l11.09,7.4,25.47,16.98,43.67,29.12c1.73,1.15,3.99,1.15,5.72,0l43.18-28.79,25.95-17.31,10.61-7.07c3.43-2.28,8.01.17,8.01,4.29v38.01c0,1.72-.86,3.33-2.29,4.29l-42.28,28.2-43.18,28.79c-1.73,1.15-3.99,1.15-5.72,0l-43.67-29.12-42.28-28.19c-1.43-.96-2.3-2.57-2.3-4.29Z"/>
      </g>
      <path d="M148.57,76.68V27.4c0-1.89,1.04-3.63,2.7-4.53L192.4.62c1.53-.83,3.37-.83,4.9,0l41.13,22.24c1.67.9,2.7,2.64,2.7,4.53v48.35c0,1.66-.8,3.22-2.15,4.19l-40.95,29.39c-1.77,1.27-4.14,1.29-5.93.06l-41.31-28.45c-1.4-.96-2.23-2.55-2.23-4.25Z"/>
    </g>
    <g>
      <path class="cls-2" d="M496.04,287.96c-47.4,0-84.45-23.54-86.02-68.12h57.14c1.57,16.95,12.24,25.11,27.31,25.11s25.74-7.85,25.74-20.72c0-40.81-110.19-18.84-109.56-97.01,0-41.75,34.22-64.98,80.37-64.98s80.37,23.86,82.56,65.93h-58.08c-.94-14.13-10.99-22.6-25.43-22.92-12.87-.31-22.6,6.28-22.6,20.09,0,38.3,108.94,21.03,108.94,94.81,0,37.04-28.88,67.81-80.37,67.81Z"/>
      <path class="cls-2" d="M617.84,155.17h-21.35v-44.58h21.35v-42.7h53.68v42.7h35.16v44.58h-35.16v70.32c0,10.36,4.4,14.75,16.32,14.75h19.15v45.52h-27.31c-36.42,0-61.85-15.38-61.85-60.9v-69.69Z"/>
      <path class="cls-2" d="M803.38,108.08c26.06,0,44.58,11.93,54,27.31v-24.8h53.68v175.18h-53.68v-24.8c-9.73,15.38-28.25,27.31-54.31,27.31-42.7,0-76.91-35.16-76.91-90.41s34.22-89.79,77.23-89.79ZM819.07,154.85c-20.09,0-38.3,15.07-38.3,43.01s18.21,43.64,38.3,43.64,38.3-15.38,38.3-43.32-17.89-43.32-38.3-43.32Z"/>
      <path class="cls-2" d="M949.98,53.45h53.68v128.4l53.05-71.26h66.24l-72.83,87.9,73.46,87.27h-66.55l-53.37-73.46v73.46h-53.68V53.45Z"/>
      <path class="cls-2" d="M1143.99,53.45h53.68v128.4l53.05-71.26h66.24l-72.83,87.9,73.46,87.27h-66.55l-53.37-73.46v73.46h-53.68V53.45Z"/>
      <path class="cls-2" d="M1332.98,63.5c0-16.32,12.87-29.2,32.02-29.2s31.71,12.87,31.71,29.2-12.87,28.88-31.71,28.88-32.02-12.87-32.02-28.88ZM1338.01,110.59h53.68v175.18h-53.68V110.59Z"/>
      <path class="cls-2" d="M1439.09,155.17h-21.35v-44.58h21.35v-42.7h53.68v42.7h35.16v44.58h-35.16v70.32c0,10.36,4.39,14.75,16.32,14.75h19.15v45.52h-27.31c-36.42,0-61.84-15.38-61.84-60.9v-69.69Z"/>
    </g>
    <g>
      <path class="cls-3" d="M150.26,77.87V30.31c0-1.83,1-3.51,2.61-4.37l39.69-21.46c1.48-.8,3.26-.8,4.73,0l39.69,21.46c1.61.87,2.61,2.55,2.61,4.37v46.65c0,1.6-.77,3.11-2.07,4.04l-39.51,28.35c-1.7,1.22-3.99,1.25-5.72.06l-39.86-27.45c-1.35-.93-2.15-2.46-2.15-4.1Z"/>
      <path class="cls-1" d="M169.84,65.85v-24.49c0-.94.52-1.81,1.34-2.25l20.44-11.05c.76-.41,1.68-.41,2.44,0l20.44,11.05c.83.45,1.34,1.31,1.34,2.25v24.03c0,.83-.4,1.6-1.07,2.08l-20.35,14.6c-.88.63-2.06.64-2.95.03l-20.53-14.14c-.69-.48-1.11-1.27-1.11-2.11Z"/>
    </g>
  </g>
</svg>